<?xml version="1.0" encoding="utf-8"?>
<!-- Generator: Adobe Illustrator 25.0.0, SVG Export Plug-In . SVG Version: 6.00 Build 0)  -->
<svg version="1.0" id="Слой_2" xmlns="http://www.w3.org/2000/svg" xmlns:xlink="http://www.w3.org/1999/xlink" x="0px" y="0px"
	 viewBox="0 0 100 96.8455963" style="enable-background:new 0 0 100 96.8455963;" xml:space="preserve">
<g>
	<path d="M74.5843964,32.1368446c0.1464996-1.0488911,0.2797241-2.0027523,0.4224777-3.0248909
		c2.1399994,0.090168,3.9801636,0.6547489,5.2690964,2.4655933c2.4611282,3.457655,4.4419708,7.1778851,5.9492035,11.1348667
		c0.3824387,1.0040283,0.89048,1.2182617,1.8742599,0.9355354c-0.2993546-0.9510574-0.5984955-1.9014702-0.9921188-3.1519928
		c2.6208878,0.1595535,5.1098022,0.1578445,7.544075,0.5216866c1.2833176,0.1918106,2.6369171,0.8071594,3.6699219,1.6050949
		c2.6531525,2.049408,2.0596008,5.5197487-1.0629959,6.7168732c-2.1448135,0.822258-4.4071579,0.7084885-6.6478958,0.592041
		c-0.2149734-0.0111694-0.4969254-0.3628235-0.5988235-0.6162796c-0.3127975-0.7781143-0.5531158-1.5853577-0.8286972-2.402317
		c-0.4785385,0-0.9279327,0-1.3900146,0c0.3164673,2.265892,1.1109695,4.1675758,3.4065247,5.1113892
		c0.836441,0.3438988,1.5971985,0.8670464,2.4153442,1.2609901c3.1936188,1.5377655,5.0039368,3.9955864,5.6037521,7.5475121
		c1.2650757,7.4911957,0.8643494,14.8870392-0.8990173,22.2314072c-0.7013092,2.9208679-1.5497589,5.7983627-1.9101181,8.8015442
		c-0.1306381,1.0887756-0.6634979,2.1684418-1.1859741,3.1611633c-0.6495972,1.2342529-1.7383881,1.8272781-3.2024612,1.8147202
		c-4.5525131-0.0390625-9.1058884-0.043663-13.6582489,0.0035706c-1.3493881,0.0140076-2.2269821-0.5754776-2.5813293-1.7749405
		c-0.4193802-1.4195862-0.6438522-2.8967285-0.9701004-4.4302216c-16.4712868,0-33.0755424,0-49.7239532,0
		c-0.1479683,1.0530243-0.2324047,2.1165161-0.4644966,3.1467514c-0.1609154,0.7142944-0.3869743,1.4990158-0.8396549,2.0372772
		c-0.4083614,0.4855652-1.1599026,0.9487762-1.7675171,0.9584961c-4.8117752,0.0770569-9.6253357,0.048111-14.4383287,0.0402832
		c-1.3089967-0.0021286-2.28373-0.7073669-2.7992568-1.8079071c-0.598413-1.2774887-1.189477-2.6411667-1.3570731-4.0193024
		c-0.2908332-2.39151-0.8222716-4.6950455-1.4659324-7.0110397c-1.9181753-6.9018326-2.3957067-13.9371338-1.488158-21.0447655
		c0.2045003-1.6015778,0.5369233-3.2116776,1.0349219-4.744976C2.2091,56.0172958,3.875376,54.5900688,5.8105731,53.4827881
		c1.0136852-0.5800133,2.0429611-1.1466522,3.1109834-1.6149368c2.1398315-0.9382401,3.2993765-2.5418739,3.5015364-4.918808
		c-0.5072203,0-1.0363388,0-1.6183453,0c-0.2604389,0.7729874-0.5011158,1.5793114-0.8120518,2.3575821
		c-0.1013966,0.2538109-0.3777523,0.611702-0.5879669,0.6213989c-2.3049073,0.1063461-4.6316576,0.2444038-6.8280792-0.6677856
		c-2.9015398-1.2050133-3.488749-4.5262871-1.0620251-6.5122719c0.9662931-0.7907944,2.2256672-1.4755402,3.4363189-1.663662
		c2.5496602-0.396183,5.1552539-0.4325409,7.9317412-0.6303787c-0.3770943,1.243-0.6725454,2.2168732-0.9871588,3.2539139
		c0.4630194,0,0.8451967,0,1.3068466,0c0.4779081-1.2417679,0.9443216-2.541851,1.4751225-3.8151054
		c1.2321272-2.9555435,2.8717566-5.6678391,4.8772459-8.1698303c1.1107235-1.385704,2.4447823-2.3194332,4.2416592-2.4789124
		c4.5212517-0.4012718,9.0436954-0.7890491,13.6363544-1.1883831c0.1160011,1.2693691,0.2057076,2.2510395,0.3016853,3.3013115
		c-2.404789,0.1042042-4.7087555,0.1465969-7.0028439,0.3197098c-2.2644119,0.1708698-4.5252171,0.429369-6.7731552,0.7505436
		c-0.5592709,0.0799026-1.1911087,0.4346161-1.5719032,0.8585014c-3.438261,3.8273506-5.6603489,8.2933846-6.677515,13.3286438
		c-0.4023638,1.9918022,0.9438343,3.3805847,3.1067753,3.3813324c12.3577328,0.0042572,24.7154713,0.0017967,37.073204,0.0017242
		c8.2926903-0.0000458,16.5853844,0.0020905,24.8780708-0.001358c1.8739243-0.0007782,3.1562958-0.9505386,3.458992-2.6255531
		c0.0822754-0.4553108,0.020668-0.9773064-0.1166306-1.4252739c-1.3728256-4.4793587-3.5298233-8.5648003-6.2321396-12.3818626
		C77.0784378,32.4349289,75.881012,32.3513756,74.5843964,32.1368446z M14.4541636,51.6569786
		c-1.2267542,0.9362755-2.2916117,1.8708038-3.4742393,2.6193314c-1.3398752,0.8480644-2.8085432,1.4899368-4.1776743,2.2954369
		c-1.1447639,0.6734886-2.0845551,1.6023788-2.4268088,2.9311218c-0.3388968,1.3157043-0.6127462,2.6548042-0.8102281,3.9990501
		c-0.6183267,4.2089424-0.5921748,8.4453697,0.050493,12.6292915c0.4850245,3.157608,1.2804775,6.2799072,2.1336994,9.3637314
		c0.4673667,1.6892166,1.1410475,1.9642105,2.9085517,1.9642181c27.3755589,0.0001602,54.7511063,0.0000916,82.1266632,0.0001755
		c2.7859955,0.0000076,2.986351-0.1467133,3.8389893-2.818718c0.0196991-0.0617065,0.03405-0.1251144,0.0524063-0.1872864
		c1.9924393-6.7507095,2.6861343-13.6285553,1.7835236-20.6144867c-0.737236-5.7058334-0.9310837-6.076683-5.9297104-8.6338005
		c-1.8636246-0.9533653-3.7612381-1.924221-4.8334045-3.9855194c-1.7278824,1.6951332-3.7961655,1.9249382-6.0082779,1.9215736
		c-20.1902237-0.0307388-40.3805237-0.026783-60.5707703-0.0044708
		C17.2830925,53.138649,15.6539173,52.7209091,14.4541636,51.6569786z M21.9134884,90.5787277
		c-5.2180481,0-10.2916384,0-15.4678726,0c0.2054443,0.6993866,0.4111414,1.4052963,0.6203227,2.1101685
		c0.2205,0.7430115,0.6534681,1.0524826,1.4919472,1.0346527c2.7576122-0.0586472,5.517252-0.021759,8.2761145-0.021637
		c1.5199108,0.0000687,3.0398216,0.0000076,4.6641369,0.0000076C21.6371574,92.6565781,21.7665958,91.6832657,21.9134884,90.5787277
		z M93.4677582,90.6120911c-5.1478424,0-10.2158203,0-15.400856,0c0.1666565,1.1219177,0.3109436,2.0931473,0.4591293,3.0906906
		c3.9104691,0,7.670784,0.0009003,11.4310989-0.0002975c2.8894653-0.0009155,2.9912567-0.0867081,3.5236359-2.942543
		C93.4920578,90.6993637,93.4698639,90.6325531,93.4677582,90.6120911z M8.8823195,43.9012489
		c-1.7315044-0.2867432-4.0967956,0.1562538-5.0937262,0.9829941c-0.2684364,0.2226105-0.5494268,0.6151962-0.5421479,0.9230843
		c0.0052722,0.2229805,0.4524009,0.5761909,0.7448585,0.6268578c1.1394546,0.1974106,2.2944496,0.3123512,3.447417,0.4163742
		c0.1612458,0.0145416,0.4391084-0.1646614,0.4999933-0.3186111C8.2791033,45.6712494,8.5693789,44.7907372,8.8823195,43.9012489z
		 M91.1572647,43.7870674c1.1809082,3.6217003,0.3803024,3.2411232,3.7829285,2.9062195
		c0.2547607-0.025074,0.5369263-0.0386543,0.7504272-0.1577721c0.3964767-0.2212029,0.7516479-0.516407,1.1240005-0.7808037
		c-0.2948761-0.3576241-0.5224533-0.8260193-0.8965759-1.0532417
		C94.4817276,43.8290749,92.8602219,43.8197441,91.1572647,43.7870674z"/>
	<path d="M74.4177628,12.2318344c0.7252274,0.569561,1.3894119,1.0911856,2.1356888,1.6772776
		c-1.6841965,1.6400852-3.2162476,3.1320276-4.7134476,4.5900126c0.6520233,1.5476723,0.5956268,1.9540386-0.5994492,3.0926571
		c-0.4486313,0.4274426-0.4931564,0.7755928-0.294281,1.3402462c3.7475433,10.639822-4.5472336,21.5341625-15.8246078,20.8050823
		c-7.7425842-0.5005531-14.249649-7.1440353-14.4809265-14.7845268
		c-0.2511101-8.2955914,5.4524002-15.1624775,13.4622269-16.2628593c2.4679031-0.3390398,4.8736496-0.1306219,7.1962547,0.7063627
		c0.7514,0.2707767,1.1518097,0.1350203,1.656311-0.395607c0.9848022-1.0357962,1.5405922-1.0969152,2.8411217-0.4253674
		c1.4819412-1.5283928,2.9887466-3.0824394,4.6501389-4.7959146c0.6454315,0.8105469,1.170517,1.4699678,1.7731781,2.2268009
		c2.1247253-2.1435056,4.0881577-4.1212859,6.0480576-6.1025667c1.3724594-1.3874216,2.7164001-2.7900686,4.6536255-3.4357429
		c5.5289307-1.842772,10.9862366,1.9772294,10.7511292,7.6491094c-0.0491333,1.1851568-0.5539627,2.3825712-1.0080032,3.5102539
		c-0.3846512,0.9553633-1.0243225,1.805028-1.5072403,2.7245216c-1.1007767,2.0959768,0.2358704,4.3633471,2.6104889,4.4189482
		c1.462738,0.0342503,2.9269867-0.0011311,4.3903809,0.0127277c1.1315384,0.0107155,1.8258972,0.6425591,1.7993927,1.6018257
		c-0.0252151,0.9126167-0.7063828,1.5249882-1.7900848,1.5113888c-1.9134979-0.0240173-3.8721771,0.1500664-5.7301788-0.1967106
		c-4.0352859-0.7531395-5.9995728-5.1744366-4.0745316-8.7941589c0.44207-0.8312654,0.9352188-1.6352491,1.3974609-2.4559526
		c1.319664-2.3430252,0.9801025-4.7489123-0.8762283-6.2387772c-1.8875275-1.5148983-4.9366684-1.4370646-6.7264023,0.2929788
		C79.6103058,6.966414,77.1385727,9.5073719,74.4177628,12.2318344z M59.8601265,16.5302773
		c-0.1159515-0.1353569-0.2319069-0.2707138-0.3478622-0.4060726c-5.7268257-1.528348-11.6411133,1.0581036-14.3552933,6.2778912
		c-2.6679764,5.1309299-1.4242287,11.4811974,2.9838562,15.2348442c4.4191132,3.7630348,10.9299507,3.9624939,15.5154076,0.5586357
		c4.7433014-3.5210342,5.9722519-9.7128067,4.3297424-13.7615299c-0.2990341,0.4832973-0.4505768,0.8674622-0.7175064,1.1376934
		c-2.2846603,2.3130131-4.5937271,4.6018963-6.8880348,6.905426c-1.121685,1.126194-2.4527054,1.8127213-4.0467606,1.9035492
		c-2.4658585,0.1405106-4.7294464-1.2194977-5.7608376-3.417717c-1.0764236-2.2942123-0.6701508-4.8700466,1.164608-6.7520752
		c2.3374176-2.3976307,4.7218246-4.7497482,7.1070976-7.1000557C59.1130486,16.8462982,59.5182915,16.7204533,59.8601265,16.5302773
		z M64.5188751,15.893219c-3.5915527,3.583622-7.1440964,7.1040287-10.6614685,10.6592159
		c-0.6712265,0.6784325-0.8916893,1.5790005-0.6382675,2.5328121c0.5938873,2.235281,3.1619148,2.9128876,4.8450241,1.2469101
		c3.3945694-3.3600159,6.7595673-6.7499104,10.1345215-10.1297169c0.1048126-0.104969,0.1848831-0.2346249,0.3865662-0.4947262
		c-0.4385605-0.3347492-0.8498306-0.6486759-1.4230576-1.0862179c1.6477051-1.623497,3.1882172-3.1413784,4.6382523-4.5701056
		c-0.4636154-0.5479336-0.9131775-1.0792694-1.4452591-1.7081327c-1.5743256,1.636178-3.0581436,3.1782932-4.5698242,4.7493649
		C65.3314896,16.6627941,64.9583588,16.3094273,64.5188751,15.893219z"/>
	<path d="M26.4719639,21.595274c-0.5880852-1.5746059-1.1467056-3.1613407-1.786211-4.7147903
		c-0.1488132-0.3614902-0.5194378-0.7392788-0.8794823-0.8876371c-1.5526924-0.6397886-3.1393986-1.1970549-4.9735794-1.8813047
		c1.1590767-0.4447355,2.0718765-0.9305391,3.0442047-1.1396465c1.9818287-0.4262075,3.1399937-1.5176582,3.5602741-3.5236454
		c0.2063599-0.9849434,0.6933937-1.9111032,1.1546154-3.1317067c0.6651611,1.7991786,1.188446,3.3504338,1.825552,4.8534608
		c0.1863117,0.439537,0.6320896,0.8940039,1.0700035,1.079421c1.5140667,0.6410656,3.0771084,1.1665039,4.9141903,1.8438845
		c-1.5628815,0.5850029-2.847086,1.1586828-4.1862755,1.5386353c-1.1474476,0.3255482-1.7820034,0.9372654-2.1052723,2.0929165
		c-0.3705788,1.3247738-0.9376965,2.594593-1.4194279,3.8882885C26.617691,21.6071911,26.5448284,21.6012344,26.4719639,21.595274z"
		/>
	<path d="M7.8641348,31.2055817c-0.705533-2.4920025-1.7335587-4.3231068-4.5390759-4.375061
		c0.0384438-0.1028976,0.0768859-0.2057972,0.1153297-0.3086929c0.7554159-0.2960358,1.4948025-0.6477299,2.2711101-0.8712196
		c0.671278-0.1932545,1.0137711-0.5683155,1.2063251-1.2245235c0.2230306-0.7600498,0.5564156-1.4877357,0.9138479-2.4164352
		c0.1910172,0.4368458,0.3569241,0.6782417,0.4014673,0.9402618c0.3194284,1.879055,1.4629564,2.9019032,3.2887936,3.2574635
		c0.2477999,0.0482578,0.4783344,0.1851158,0.9429436,0.3717804c-0.9319639,0.3648262-1.6708422,0.7169781-2.4469852,0.9387054
		c-0.6637383,0.1896172-1.0356131,0.535347-1.2292328,1.1986809C8.5650053,29.4827652,8.2368345,30.2184887,7.8641348,31.2055817z"
		/>
	<path d="M9.5723982,3.396332c0.1474648,1.6953623,1.1649132,2.5292537,2.7727623,2.8881533
		c-1.5550928,0.422276-2.6952229,1.137321-2.862648,2.9445806C9.0113287,7.6567488,8.2164192,6.5630145,6.5827656,6.2291784
		c0.6404166-0.270174,1.4259043-0.3955264,1.8807259-0.8509727c0.4611378-0.4617715,0.5955753-1.2496696,0.8731041-1.8947303
		C9.4151955,3.454427,9.4937983,3.4253788,9.5723982,3.396332z"/>
	<path d="M50.0477867,65.6068039c6.602375-0.000267,13.2047424-0.0009689,19.8071175,0.0003281
		c1.31353,0.0002594,1.9542923,0.5293274,1.9830475,1.8356552c0.0675735,3.0699158-0.6238632,5.9416656-2.5673981,8.3950043
		c-1.1927643,1.5056686-2.7452087,2.2791367-4.730423,2.2729263c-9.6595306-0.0302353-19.3193054-0.0367126-28.9787483,0.005188
		c-2.1894646,0.0094986-3.82127-0.8914032-5.0658531-2.5853043c-1.76371-2.4004288-2.4019985-5.155632-2.33321-8.0847626
		c0.0308514-1.3138046,0.6601677-1.8379745,1.9807796-1.8382187C36.7779961,65.6064072,43.4128876,65.6070557,50.0477867,65.6068039
		z M68.6588593,68.7827759c-12.45261,0-24.8554382,0-37.3261795,0c0.1639767,1.7483673,0.5917492,3.3515091,1.5876141,4.7666779
		c0.6747551,0.9588394,1.5252571,1.450676,2.7862816,1.4451065c9.588295-0.0423889,19.1768723-0.0319214,28.7652893-0.0083237
		c0.9669876,0.0023804,1.6983337-0.3292847,2.2936249-1.0431213C67.9986725,72.4643631,68.4854736,70.7142258,68.6588593,68.7827759
		z"/>
	<path d="M49.9737282,84.3405838c-7.7037621-0.000061-15.4075356-0.0000381-23.1112995-0.0001602
		c-0.2275333-0.0000076-0.4953861,0.0756454-0.6743832-0.0179367c-0.3996658-0.2089462-0.9097538-0.432724-1.0703754-0.7880478
		c-0.0964184-0.2133026,0.3100929-0.9088974,0.6119919-1.004509c1.5940475-0.5048676,3.2239037-1.2441635,4.8463917-1.2568588
		c12.9363327-0.1011581,25.874012-0.089447,38.8106728-0.0116653c1.4804153,0.0089035,2.9720078,0.5855255,4.4278183,1.005043
		c0.5421371,0.1562271,1.2878113,0.4384689,1.1166077,1.2467804c-0.168541,0.7957458-0.8631516,0.8337173-1.5535889,0.8329391
		C65.5763016,84.3374481,57.7750092,84.3406372,49.9737282,84.3405838z"/>
	<path d="M25.017046,69.6468658c-2.0928898,1.2963715-4.3328342,1.9907837-6.6733646,2.1368103
		c-1.9992447,0.124733-4.0450525,0.0783463-6.0260324-0.2033157c-3.7115154-0.52771-6.5537572-4.5862579-5.9674783-8.3040543
		c0.1660223-1.0527992,0.4496555-2.0901871,0.7309151-3.1205673c0.1825638-0.6688232,0.6498294-0.9754257,1.3430409-0.6945038
		c3.482482,1.4112396,7.0207338,2.7047424,10.4203825,4.2940826C21.4644699,64.9801636,23.6268196,66.8745575,25.017046,69.6468658z
		 M20.1222839,68.3459854c-3.2634869-2.5955811-6.8924417-3.8091965-10.4894476-5.1409378
		c-0.6812172,2.3174744,0.9870224,5.0529022,3.2276649,5.2966461c1.669919,0.1816483,3.363246,0.1830063,5.0464659,0.1902008
		C18.5642433,68.6947098,19.2223873,68.493866,20.1222839,68.3459854z"/>
	<path d="M75.0093994,69.7856598c1.061882-2.2004852,2.7468262-3.7939301,4.7188034-5.1004486
		c3.664856-2.4281387,7.8156433-3.773262,11.9044037-5.2493896c0.5929184-0.2140541,1.0652695,0.0227394,1.2483139,0.5973282
		c0.7262421,2.2796021,1.2557907,4.5492477,0.2563324,6.9285202c-1.1737289,2.7942123-3.0909576,4.4727478-6.1927109,4.7457733
		c-3.4647369,0.304985-6.8792419,0.269516-10.1761017-1.0157928c-0.4222107-0.1646042-0.8328476-0.3610611-1.2404251-0.5599899
		C75.356575,70.0479965,75.2069931,69.919548,75.0093994,69.7856598z M79.9869843,68.4144897
		c0.8911514,0.129364,1.4612503,0.2846298,2.030304,0.2808838c1.585022-0.0104218,3.1754227-0.0188675,4.7529907-0.1535034
		c2.2237015-0.1897659,3.95784-2.3296967,3.8077621-4.5800552c-0.0157547-0.2362099-0.1102905-0.4671669-0.1834259-0.7614975
		C86.7665329,64.5674438,83.2073746,65.8214951,79.9869843,68.4144897z"/>
	<path d="M81.2870941,84.5640411c0.2198715-1.6494904,0.8801651-2.8302994,1.8673325-3.7161713
		c1.1964569-1.0736771,2.4844742-2.1103668,3.8913574-2.8694077c2.1276932-1.1479263,4.3923416-2.0421143,6.581604-3.0363235
		c0.3948441,2.5085831-0.9895401,5.4334641-3.4739151,6.4781418C87.3283691,82.6082535,84.3728104,83.4861069,81.2870941,84.5640411
		z"/>
	<path d="M6.3295736,74.9114838c2.3934612,1.1148758,4.821435,2.1771774,7.1843691,3.3684464
		c1.8543787,0.9348755,3.3873768,2.2959747,4.4134254,4.1371078c0.3201237,0.5744324,0.4981232,1.2280426,0.8501568,2.1222
		c-0.9501019-0.3150482-1.608181-0.5367126-2.2684841-0.7515564c-1.8779678-0.6110306-3.7695484-1.1830826-5.6325235-1.8367233
		C7.6867614,80.83181,5.9773579,78.137886,6.3295736,74.9114838z"/>
</g>
</svg>
