<svg aria-hidden="true" style="position: absolute; width: 0; height: 0; overflow: hidden;" version="1.1" xmlns="http://www.w3.org/2000/svg" xmlns:xlink="http://www.w3.org/1999/xlink">
  <defs>
    <symbol id="det" viewBox="0 0 33 32">
      <path d="M24.644 10.619c0.048-0.347 0.092-0.662 0.14-0.999 0.707 0.030 1.315 0.216 1.741 0.815 0.813 1.143 1.468 2.372 1.966 3.679 0.126 0.332 0.294 0.403 0.619 0.309-0.099-0.314-0.198-0.628-0.328-1.041 0.866 0.053 1.688 0.052 2.493 0.172 0.424 0.063 0.871 0.267 1.213 0.53 0.877 0.677 0.681 1.824-0.351 2.219-0.709 0.272-1.456 0.234-2.197 0.196-0.071-0.004-0.164-0.12-0.198-0.204-0.103-0.257-0.183-0.524-0.274-0.794-0.158 0-0.307 0-0.459 0 0.105 0.749 0.367 1.377 1.126 1.689 0.276 0.114 0.528 0.287 0.798 0.417 1.055 0.508 1.653 1.32 1.852 2.494 0.418 2.475 0.286 4.919-0.297 7.346-0.232 0.965-0.512 1.916-0.631 2.908-0.043 0.36-0.219 0.716-0.392 1.045-0.215 0.408-0.574 0.604-1.058 0.6-1.504-0.013-3.009-0.014-4.513 0.001-0.446 0.005-0.736-0.19-0.853-0.586-0.139-0.469-0.213-0.957-0.321-1.464-5.442 0-10.929 0-16.43 0-0.049 0.348-0.077 0.699-0.153 1.040-0.053 0.236-0.128 0.495-0.277 0.673-0.135 0.16-0.383 0.314-0.584 0.317-1.59 0.025-3.18 0.016-4.771 0.013-0.433-0.001-0.755-0.234-0.925-0.597-0.198-0.422-0.393-0.873-0.448-1.328-0.096-0.79-0.272-1.551-0.484-2.317-0.634-2.281-0.792-4.605-0.492-6.954 0.068-0.529 0.177-1.061 0.342-1.568 0.234-0.72 0.784-1.191 1.424-1.557 0.335-0.192 0.675-0.379 1.028-0.534 0.707-0.31 1.090-0.84 1.157-1.625-0.168 0-0.342 0-0.535 0-0.086 0.255-0.166 0.522-0.268 0.779-0.034 0.084-0.125 0.202-0.194 0.205-0.762 0.035-1.53 0.081-2.256-0.221-0.959-0.398-1.153-1.496-0.351-2.152 0.319-0.261 0.735-0.488 1.135-0.55 0.842-0.131 1.703-0.143 2.621-0.208-0.125 0.411-0.222 0.732-0.326 1.075 0.153 0 0.279 0 0.432 0 0.158-0.41 0.312-0.84 0.487-1.261 0.407-0.977 0.949-1.873 1.612-2.7 0.367-0.458 0.808-0.766 1.402-0.819 1.494-0.133 2.988-0.261 4.506-0.393 0.038 0.419 0.068 0.744 0.1 1.091-0.795 0.034-1.556 0.048-2.314 0.106-0.748 0.056-1.495 0.142-2.238 0.248-0.185 0.026-0.394 0.144-0.519 0.284-1.136 1.265-1.87 2.74-2.206 4.404-0.133 0.658 0.312 1.117 1.027 1.117 4.083 0.001 8.167 0.001 12.25 0.001 2.74 0 5.48 0.001 8.22-0 0.619-0 1.043-0.314 1.143-0.868 0.027-0.15 0.007-0.323-0.039-0.471-0.454-1.48-1.166-2.83-2.059-4.091-0.264-0.373-0.66-0.4-1.088-0.471zM4.776 17.069c-0.405 0.309-0.757 0.618-1.148 0.866-0.443 0.28-0.928 0.492-1.38 0.758-0.378 0.223-0.689 0.529-0.802 0.968-0.112 0.435-0.202 0.877-0.268 1.321-0.204 1.391-0.196 2.791 0.017 4.173 0.16 1.043 0.423 2.075 0.705 3.094 0.154 0.558 0.377 0.649 0.961 0.649 9.046 0 18.091 0 27.137 0 0.921 0 0.987-0.048 1.268-0.931 0.006-0.020 0.011-0.041 0.017-0.062 0.658-2.231 0.888-4.503 0.589-6.811-0.244-1.885-0.308-2.008-1.959-2.853-0.616-0.315-1.243-0.636-1.597-1.317-0.571 0.56-1.254 0.636-1.985 0.635-6.671-0.010-13.343-0.009-20.014-0.001-0.606 0.001-1.144-0.137-1.541-0.489zM7.241 29.929c-1.724 0-3.401 0-5.111 0 0.068 0.231 0.136 0.464 0.205 0.697 0.073 0.245 0.216 0.348 0.493 0.342 0.911-0.019 1.823-0.007 2.735-0.007 0.502 0 1.004 0 1.541 0 0.046-0.345 0.089-0.667 0.137-1.032zM30.884 29.94c-1.701 0-3.376 0-5.089 0 0.055 0.371 0.103 0.692 0.152 1.021 1.292 0 2.535 0 3.777-0 0.955-0 0.988-0.029 1.164-0.972 0.004-0.020-0.004-0.042-0.004-0.049zM2.935 14.506c-0.572-0.095-1.354 0.052-1.683 0.325-0.089 0.074-0.182 0.203-0.179 0.305 0.002 0.074 0.149 0.19 0.246 0.207 0.377 0.065 0.758 0.103 1.139 0.138 0.053 0.005 0.145-0.054 0.165-0.105 0.112-0.284 0.208-0.575 0.312-0.869zM30.12 14.468c0.39 1.197 0.126 1.071 1.25 0.96 0.084-0.008 0.177-0.013 0.248-0.052 0.131-0.073 0.248-0.171 0.371-0.258-0.097-0.118-0.173-0.273-0.296-0.348-0.475-0.288-1.010-0.291-1.573-0.302z"></path>
      <path d="M24.589 4.042c0.24 0.188 0.459 0.361 0.706 0.554-0.556 0.542-1.063 1.035-1.557 1.517 0.215 0.511 0.197 0.646-0.198 1.022-0.148 0.141-0.163 0.256-0.097 0.443 1.238 3.516-1.503 7.115-5.229 6.874-2.558-0.165-4.708-2.361-4.785-4.885-0.083-2.741 1.802-5.010 4.448-5.374 0.815-0.112 1.61-0.043 2.378 0.233 0.248 0.089 0.381 0.045 0.547-0.131 0.325-0.342 0.509-0.362 0.939-0.141 0.49-0.505 0.988-1.018 1.537-1.585 0.213 0.268 0.387 0.486 0.586 0.736 0.702-0.708 1.351-1.362 1.998-2.016 0.453-0.458 0.898-0.922 1.538-1.135 1.827-0.609 3.63 0.653 3.552 2.527-0.016 0.392-0.183 0.787-0.333 1.16-0.127 0.316-0.338 0.596-0.498 0.9-0.364 0.693 0.078 1.442 0.863 1.46 0.483 0.011 0.967-0 1.451 0.004 0.374 0.004 0.603 0.212 0.595 0.529-0.008 0.302-0.233 0.504-0.592 0.499-0.632-0.008-1.279 0.050-1.893-0.065-1.333-0.249-1.982-1.71-1.346-2.906 0.146-0.275 0.309-0.54 0.462-0.812 0.436-0.774 0.324-1.569-0.29-2.061-0.624-0.501-1.631-0.475-2.223 0.097-0.842 0.814-1.658 1.653-2.558 2.554zM19.779 5.462c-0.038-0.045-0.077-0.089-0.115-0.134-1.892-0.505-3.846 0.35-4.743 2.074-0.882 1.695-0.471 3.794 0.986 5.034 1.46 1.243 3.611 1.309 5.127 0.185 1.567-1.163 1.973-3.209 1.431-4.547-0.099 0.16-0.149 0.287-0.237 0.376-0.755 0.764-1.518 1.521-2.276 2.282-0.371 0.372-0.81 0.599-1.337 0.629-0.815 0.046-1.563-0.403-1.904-1.129-0.356-0.758-0.221-1.609 0.385-2.231 0.772-0.792 1.56-1.569 2.348-2.346 0.089-0.087 0.223-0.129 0.336-0.192zM21.319 5.251c-1.187 1.184-2.361 2.347-3.523 3.522-0.222 0.224-0.295 0.522-0.211 0.837 0.196 0.739 1.045 0.963 1.601 0.412 1.122-1.11 2.234-2.23 3.349-3.347 0.035-0.035 0.061-0.078 0.128-0.163-0.145-0.111-0.281-0.214-0.47-0.359 0.544-0.536 1.053-1.038 1.533-1.51-0.153-0.181-0.302-0.357-0.478-0.564-0.52 0.541-1.010 1.050-1.51 1.569-0.15-0.142-0.273-0.259-0.418-0.396z"></path>
      <path d="M8.747 7.136c-0.194-0.52-0.379-1.045-0.59-1.558-0.049-0.119-0.172-0.244-0.291-0.293-0.513-0.211-1.037-0.396-1.643-0.622 0.383-0.147 0.685-0.307 1.006-0.377 0.655-0.141 1.038-0.501 1.176-1.164 0.068-0.325 0.229-0.631 0.382-1.035 0.22 0.595 0.393 1.107 0.603 1.604 0.062 0.145 0.209 0.295 0.354 0.357 0.5 0.212 1.017 0.385 1.624 0.609-0.516 0.193-0.941 0.383-1.383 0.508-0.379 0.108-0.589 0.31-0.696 0.692-0.122 0.438-0.31 0.857-0.469 1.285-0.024-0.002-0.048-0.004-0.072-0.006z"></path>
      <path d="M2.599 10.311c-0.233-0.823-0.573-1.428-1.5-1.446 0.013-0.034 0.025-0.068 0.038-0.102 0.25-0.098 0.494-0.214 0.75-0.288 0.222-0.064 0.335-0.188 0.399-0.405 0.074-0.251 0.184-0.492 0.302-0.798 0.063 0.144 0.118 0.224 0.133 0.311 0.106 0.621 0.483 0.959 1.087 1.076 0.082 0.016 0.158 0.061 0.312 0.123-0.308 0.121-0.552 0.237-0.809 0.31-0.219 0.063-0.342 0.177-0.406 0.396-0.074 0.253-0.182 0.496-0.305 0.822z"></path>
      <path d="M3.163 1.122c0.049 0.56 0.385 0.836 0.916 0.954-0.514 0.14-0.891 0.376-0.946 0.973-0.156-0.52-0.418-0.881-0.958-0.991 0.212-0.089 0.471-0.131 0.621-0.281 0.152-0.153 0.197-0.413 0.288-0.626 0.026-0.010 0.052-0.019 0.078-0.029z"></path>
      <path d="M16.537 21.678c2.182-0 4.363-0 6.545 0 0.434 0 0.646 0.175 0.655 0.607 0.022 1.014-0.206 1.963-0.848 2.774-0.394 0.497-0.907 0.753-1.563 0.751-3.192-0.010-6.384-0.012-9.575 0.002-0.723 0.003-1.263-0.295-1.674-0.854-0.583-0.793-0.794-1.704-0.771-2.671 0.010-0.434 0.218-0.607 0.655-0.607 2.192-0 4.385-0 6.577-0zM22.686 22.727c-4.115 0-8.213 0-12.333 0 0.054 0.578 0.196 1.107 0.525 1.575 0.223 0.317 0.504 0.479 0.921 0.477 3.168-0.014 6.336-0.011 9.505-0.003 0.32 0.001 0.561-0.109 0.758-0.345 0.407-0.489 0.568-1.067 0.626-1.705z"></path>
      <path d="M16.512 27.868c-2.546-0-5.091 0-7.636-0-0.075 0-0.164 0.025-0.223-0.006-0.132-0.069-0.301-0.143-0.354-0.26-0.032-0.070 0.102-0.3 0.202-0.332 0.527-0.167 1.065-0.411 1.601-0.415 4.274-0.033 8.549-0.030 12.824-0.004 0.489 0.003 0.982 0.193 1.463 0.332 0.179 0.052 0.426 0.145 0.369 0.412-0.056 0.263-0.285 0.275-0.513 0.275-2.578-0.003-5.155-0.002-7.733-0.002z"></path>
      <path d="M8.266 23.013c-0.692 0.428-1.432 0.658-2.205 0.706-0.661 0.041-1.337 0.026-1.991-0.067-1.226-0.174-2.166-1.515-1.972-2.744 0.055-0.348 0.149-0.691 0.241-1.031 0.060-0.221 0.215-0.322 0.444-0.229 1.151 0.466 2.32 0.894 3.443 1.419 0.866 0.405 1.58 1.031 2.040 1.947zM6.649 22.583c-1.078-0.858-2.277-1.259-3.466-1.699-0.225 0.766 0.326 1.67 1.066 1.75 0.552 0.060 1.111 0.060 1.667 0.063 0.217 0.001 0.435-0.065 0.732-0.114z"></path>
      <path d="M24.785 23.059c0.351-0.727 0.908-1.254 1.559-1.685 1.211-0.802 2.582-1.247 3.933-1.735 0.196-0.071 0.352 0.008 0.412 0.197 0.24 0.753 0.415 1.503 0.085 2.289-0.388 0.923-1.021 1.478-2.046 1.568-1.145 0.101-2.273 0.089-3.362-0.336-0.14-0.054-0.275-0.119-0.41-0.185-0.057-0.028-0.106-0.070-0.171-0.114zM26.43 22.606c0.294 0.043 0.483 0.094 0.671 0.093 0.524-0.003 1.049-0.006 1.57-0.051 0.735-0.063 1.308-0.77 1.258-1.513-0.005-0.078-0.036-0.154-0.061-0.252-1.199 0.452-2.375 0.866-3.439 1.723z"></path>
      <path d="M26.859 27.942c0.073-0.545 0.291-0.935 0.617-1.228 0.395-0.355 0.821-0.697 1.286-0.948 0.703-0.379 1.451-0.675 2.175-1.003 0.13 0.829-0.327 1.795-1.148 2.141-0.933 0.393-1.91 0.683-2.93 1.039z"></path>
      <path d="M2.091 24.752c0.791 0.368 1.593 0.719 2.374 1.113 0.613 0.309 1.119 0.759 1.458 1.367 0.106 0.19 0.165 0.406 0.281 0.701-0.314-0.104-0.531-0.177-0.75-0.248-0.621-0.202-1.246-0.391-1.861-0.607-1.054-0.37-1.619-1.26-1.502-2.326z"></path>
    </symbol>
    <symbol id="sew" viewBox="0 0 35 32">
      <path d="M14.785 29.948c-2.86 0-5.72 0.007-8.58-0.002-2.232-0.007-3.867-1.724-3.558-3.681 0.342-2.168 0.651-4.341 0.98-6.511 0.26-1.719 0.437-3.453 0.812-5.153 0.714-3.24 2.884-5.477 6.37-6.652 4.237-1.428 8.5-2.797 12.751-4.192 1.484-0.487 2.967-0.976 4.453-1.457 2.348-0.76 4.803 0.465 5.216 2.636 0.093 0.486 0.024 1.005-0.031 1.503-0.185 1.685-0.399 3.368-0.597 5.052-0.187 1.587-0.374 3.173-0.549 4.761-0.159 1.441-0.298 2.884-0.45 4.326-0.119 1.128-0.189 2.263-0.379 3.383-0.485 2.863-3.063 5.247-6.284 5.842-0.623 0.115-1.271 0.169-1.908 0.173-2.749 0.018-5.498 0.008-8.247 0.008 0-0.012 0-0.024 0-0.036zM27.189 20.712c0.032-0.301 0.054-0.551 0.087-0.801s0.068-0.5 0.116-0.748c0.516-2.641 1.765-4.978 3.747-7.006 0.178-0.182 0.262-0.364 0.289-0.594 0.225-1.927 0.446-3.855 0.689-5.781 0.182-1.447-1.112-2.715-2.764-2.688-0.521 0.008-0.987 0.186-1.461 0.341-5.432 1.78-10.86 3.569-16.298 5.335-1.43 0.464-2.714 1.105-3.76 2.092-0.256 0.241-0.488 0.503-0.763 0.789 0.112 0.011 0.157 0.016 0.201 0.020 0.542 0.047 1.083 0.097 1.626 0.135 0.1 0.007 0.219-0.017 0.306-0.062 1.51-0.78 3.018-1.565 4.524-2.352 0.239-0.125 0.472-0.163 0.71-0.016 0.239 0.147 0.28 0.356 0.222 0.595-0.226 0.937-0.448 1.875-0.67 2.812-0.052 0.22-0.099 0.442-0.162 0.723 0.362-0.192 0.66-0.348 0.956-0.506 0.499-0.266 0.739-0.214 1.056 0.222 0.031 0.043 0.124 0.101 0.152 0.088 0.335-0.149 0.664-0.311 1.005-0.475-0.077-0.123-0.133-0.215-0.191-0.306-0.345-0.543-0.696-1.083-1.033-1.629-0.193-0.313-0.041-0.642 0.323-0.746 0.283-0.080 0.54 0.019 0.711 0.286 0.418 0.651 0.833 1.303 1.248 1.956 0.571 0.896 1.144 1.791 1.711 2.689 0.175 0.278 0.090 0.565-0.192 0.711-0.296 0.153-0.627 0.072-0.814-0.205-0.117-0.174-0.226-0.353-0.339-0.53-0.28-0.437-0.56-0.874-0.852-1.33-0.369 0.179-0.718 0.348-1.086 0.526 0.099 0.159 0.184 0.291 0.265 0.426 0.171 0.284 0.123 0.534-0.168 0.723-0.891 0.579-1.765 1.182-2.69 1.717-1.396 0.809-2.829 1.568-4.246 2.35-0.106 0.059-0.218 0.116-0.307 0.193-0.599 0.517-1.264 0.953-2.007 1.295-0.313 0.144-0.635 0.274-0.965 0.416 0.204 0.403 0.408 0.789 0.592 1.182 0.066 0.141 0.158 0.18 0.322 0.179 1.030-0.006 2.060-0.008 3.089 0.001 0.21 0.002 0.304-0.060 0.372-0.232 0.27-0.679 0.556-1.354 0.841-2.029 0.136-0.322 0.443-0.459 0.767-0.354 0.319 0.103 0.454 0.394 0.324 0.709-0.158 0.381-0.32 0.76-0.479 1.141-0.101 0.241-0.198 0.483-0.306 0.745h6.594c-0.031-0.107-0.056-0.194-0.081-0.281-0.407-1.394 0.333-2.613 1.873-3.081 0.694-0.211 1.402-0.197 2.112-0.089 1.163 0.178 2.248 0.573 3.34 0.947 0.478 0.164 0.957 0.324 1.464 0.496zM20.74 25.4c-0.061-0.045-0.106-0.083-0.156-0.115-0.579-0.368-1.061-0.818-1.44-1.35-0.093-0.131-0.198-0.17-0.365-0.17-3.634 0.004-7.268 0.003-10.902 0.003-0.083 0-0.167 0-0.273 0 0.018 0.066 0.022 0.1 0.037 0.13 0.447 0.888 0.892 1.776 1.348 2.66 0.032 0.061 0.151 0.123 0.23 0.124 2.969 0.007 5.938 0.007 8.906 0.001 0.081-0 0.192-0.058 0.238-0.119 0.142-0.188 0.326-0.272 0.578-0.269 0.372 0.005 0.744 0.005 1.116-0.002 0.069-0.001 0.171-0.027 0.199-0.071 0.169-0.267 0.322-0.543 0.483-0.821zM4.668 20.741c0.954-0.123 2.445-0.739 3.345-1.406 1.735-1.286 2.506-2.917 2.167-4.916-0.127-0.749-0.553-1.319-1.409-1.571-0.774-0.228-1.563-0.179-2.351-0.083-0.065 0.008-0.142 0.086-0.171 0.147-0.159 0.342-0.301 0.691-0.459 1.034-0.068 0.147-0.010 0.212 0.145 0.265 0.325 0.11 0.642 0.238 0.965 0.353 0.242 0.086 0.379 0.233 0.423 0.463 0.116 0.614 0.24 1.226 0.367 1.838 0.050 0.238-0.012 0.431-0.199 0.615-0.871 0.86-1.725 1.734-2.599 2.591-0.204 0.2-0.205 0.42-0.225 0.671zM6.423 28.931c0.048 0 0.096-0.005 0.142 0.001 0.242 0.032 0.383-0.052 0.499-0.251 0.26-0.447 0.549-0.882 0.84-1.314 0.091-0.136 0.095-0.245 0.021-0.388-0.816-1.599-1.625-3.201-2.434-4.803-0.251-0.496-0.247-0.491-0.845-0.359-0.137 0.030-0.17 0.089-0.187 0.198-0.199 1.338-0.413 2.674-0.598 4.013-0.054 0.391-0.106 0.804-0.023 1.184 0.235 1.082 1.232 1.718 2.585 1.72zM29.958 24.327c-0.113-0.011-0.174-0.016-0.235-0.024-0.781-0.099-1.583-0.133-2.339-0.314-1.157-0.277-2.285-0.654-3.423-0.993-0.895-0.266-1.794-0.512-2.757-0.45-0.486 0.031-0.943 0.147-1.378 0.368 0.037 0.073 0.060 0.131 0.094 0.185 0.693 1.102 1.704 1.787 3.156 1.94 2.132 0.226 4.265 0.166 6.4 0.067 0.070-0.003 0.179-0.034 0.2-0.077 0.104-0.223 0.185-0.454 0.282-0.703zM30.257 22.317c-0.071-0.011-0.101-0.019-0.131-0.020-0.994-0.004-1.95-0.199-2.878-0.489-1.238-0.387-2.458-0.816-3.693-1.211-0.755-0.241-1.528-0.42-2.345-0.364-0.542 0.037-1.016 0.213-1.39 0.565-0.325 0.305-0.399 0.674-0.329 1.104 0.676-0.272 1.348-0.406 2.057-0.396 0.817 0.011 1.601 0.174 2.369 0.398 1.194 0.348 2.378 0.725 3.577 1.056 0.795 0.219 1.622 0.315 2.459 0.31 0.106-0.001 0.212 0.009 0.224-0.124 0.025-0.271 0.052-0.542 0.080-0.829zM31.142 13.911c-5.309-0.885-5.331-0.889-5.354-0.894l5.287 0.881c-1.658 2.147-2.619 4.504-2.726 7.128 0.627 0.155 1.233 0.242 1.855 0.238 0.136-0.001 0.172-0.055 0.183-0.165 0.058-0.606 0.122-1.211 0.186-1.817 0.154-1.461 0.309-2.923 0.463-4.384 0.035-0.329 0.071-0.658 0.107-0.988zM17.686 27.715c-0.122 0-0.207 0-0.292 0-2.715 0-5.43 0.002-8.144-0.003-0.172-0-0.286 0.035-0.353 0.18-0.036 0.077-0.093 0.146-0.14 0.219-0.164 0.259-0.327 0.518-0.508 0.805 0.112 0.008 0.18 0.016 0.248 0.017 2.762 0.005 5.524 0.008 8.287 0.017 0.163 0 0.261-0.037 0.331-0.172 0.153-0.292 0.324-0.576 0.485-0.864 0.030-0.053 0.048-0.112 0.085-0.198zM10.23 12.408c0.61 0.496 0.937 1.085 1.079 1.754 0.23 1.090 0.11 2.157-0.299 3.201-0.015 0.039-0.017 0.082-0.034 0.169 0.597-0.325 1.145-0.63 1.7-0.922 0.146-0.077 0.186-0.166 0.168-0.308-0.062-0.473-0.126-0.945-0.167-1.419-0.037-0.43-0.115-0.869-0.050-1.29 0.107-0.698 0.316-1.384 0.48-2.075 0.049-0.208 0.094-0.418 0.154-0.689l-3.030 1.578zM18.316 28.949c0.14 0 0.218-0 0.296 0 1.52 0.001 3.039 0.001 4.559 0.005 1.047 0.003 2.038-0.204 2.985-0.591 0.051-0.021 0.096-0.053 0.144-0.080-0.127-0.048-0.243-0.048-0.358-0.048-0.958 0.001-1.915-0.001-2.873 0.003-0.247 0.001-0.425-0.081-0.603-0.236-0.204-0.178-0.443-0.339-0.698-0.451-0.531-0.233-1.115-0.241-1.696-0.227-0.276 0.007-0.608-0.068-0.811 0.043s-0.278 0.406-0.403 0.623c-0.175 0.303-0.345 0.608-0.542 0.958zM21.48 26.387c0.621 0.141 1.156 0.336 1.61 0.687 0.101 0.078 0.26 0.135 0.394 0.136 1.235 0.010 2.471 0.006 3.707 0.006 0.946 0 0.947 0 1.521-0.67 0.096-0.112 0.185-0.229 0.267-0.332-0.694 0-1.358-0.002-2.022 0-1.687 0.006-3.375 0.018-5.029-0.348-0.049-0.011-0.139 0.005-0.159 0.035-0.1 0.148-0.183 0.304-0.289 0.486zM5.018 18.307c0.023 0.010 0.046 0.019 0.069 0.029 0.457-0.459 0.916-0.917 1.366-1.381 0.041-0.042 0.040-0.131 0.029-0.195-0.074-0.406-0.155-0.812-0.24-1.217-0.010-0.049-0.040-0.117-0.083-0.136-0.204-0.087-0.416-0.159-0.666-0.252-0.161 1.072-0.318 2.112-0.474 3.151zM13.955 15.826c0.344-0.219 0.641-0.41 0.94-0.599 0.659-0.416 0.656-0.414 0.226-1.030-0.073-0.104-0.132-0.113-0.244-0.052-0.302 0.166-0.611 0.322-0.913 0.488-0.054 0.030-0.13 0.090-0.127 0.132 0.028 0.338 0.072 0.674 0.117 1.060z"></path>
      <path d="M32.242 1.026c-1.845-0.041-3.67 0.091-5.47 0.47-1.36 0.287-2.654 0.744-3.96 1.171-6.591 2.156-13.179 4.321-19.777 6.461-0.609 0.197-1.282 0.242-1.925 0.357-0.132 0.024-0.264 0.046-0.397 0.065-0.343 0.050-0.642-0.12-0.701-0.396-0.062-0.287 0.125-0.542 0.468-0.605 0.472-0.088 0.946-0.174 1.424-0.233 0.724-0.089 1.381-0.355 2.055-0.574 4.559-1.487 9.116-2.981 13.673-4.472 2.279-0.745 4.554-1.499 6.838-2.232 2.087-0.67 4.249-1.002 6.468-1.027 1.299-0.015 2.599-0.006 3.898-0.007 0.295-0 0.511 0.126 0.598 0.337 0.079 0.193 0.028 0.438-0.166 0.549-0.137 0.079-0.319 0.129-0.483 0.132-0.847 0.013-1.695 0.006-2.543 0.006zM17.721 31.999c-5.649 0-11.298 0-16.947-0-0.095 0-0.191 0.004-0.285-0.007-0.278-0.034-0.482-0.245-0.488-0.494-0.005-0.256 0.18-0.462 0.465-0.505 0.093-0.014 0.189-0.015 0.284-0.015 11.329-0.001 22.659-0.001 33.988-0 0.476 0 0.732 0.185 0.724 0.521-0.006 0.258-0.219 0.467-0.511 0.497-0.070 0.007-0.142 0.004-0.214 0.004-5.673 0-11.345 0-17.018 0z"></path>
    </symbol>
    <symbol id="wrap" viewBox="0 0 51 32">
      <path d="M7.494 13.987c-0.069-0.032-0.139-0.061-0.208-0.093-1.235-0.676-2.574-1.122-3.897-1.6-0.008-0.003-0.015-0.002-0.023-0.004-0.108-0.034-0.2-0.032-0.276 0.004-0.003 0.001-0.006 0.002-0.008 0.003-0.035 0.018-0.066 0.044-0.093 0.076-0.007 0.008-0.015 0.016-0.022 0.026-0.024 0.034-0.044 0.073-0.061 0.118-0.002 0.004-0.005 0.007-0.006 0.012-0.005 0.014-0.009 0.028-0.013 0.043-0.001 0.002-0.001 0.004-0.002 0.005s-0.001 0.004-0.002 0.006c-0.118 0.375-0.218 0.749-0.266 1.127-0.005 0.030-0.014 0.060-0.019 0.090-0.12 0.76 0.128 1.554 0.597 2.171 0.015 0.021 0.032 0.039 0.047 0.060 0.028 0.035 0.056 0.071 0.086 0.105 0.453 0.555 1.064 0.893 1.898 0.967 0.692 0.061 1.378 0.086 2.057 0.030 0.005-0 0.010-0 0.015-0.001 0.291-0.018 0.577-0.061 0.86-0.123 0.355-0.072 0.707-0.169 1.055-0.305 0.165-0.064 0.326-0.141 0.486-0.219 0.067-0.033 0.126-0.083 0.203-0.136-0.006-0.013-0.014-0.024-0.020-0.037 0.010-0.006 0.020-0.011 0.030-0.017-0.545-1.086-1.392-1.828-2.418-2.308zM7.126 15.922c-0.047-0-0.095-0.001-0.142-0.001-0.526-0.004-1.053-0.012-1.577-0.052-0.049-0.004-0.097-0.008-0.146-0.012-0.504-0.054-0.937-0.364-1.199-0.787-0.22-0.385-0.307-0.859-0.179-1.296 1.41 0.531 2.794 1.021 4.047 2.024-0.319 0.056-0.564 0.125-0.805 0.124z"></path>
      <path d="M7.404 21.963c-0.108-0.551-0.345-0.965-0.694-1.278-0.024-0.022-0.050-0.043-0.074-0.064-0.346-0.386-0.758-0.703-1.231-0.942-0.036-0.018-0.073-0.034-0.108-0.052-0.037-0.021-0.073-0.046-0.111-0.066-0.75-0.404-1.542-0.729-2.317-1.074-0.093-0.043-0.186-0.085-0.278-0.128-0.091 0.835 0.177 1.575 0.725 2.11 0.009 0.009 0.019 0.017 0.028 0.025 0.277 0.263 0.618 0.479 1.028 0.622 0.512 0.18 1.030 0.344 1.548 0.509 0.499 0.168 1.005 0.334 1.523 0.515-0.001-0.007-0.003-0.013-0.004-0.020 0.010 0.003 0.019 0.006 0.029 0.010-0.024-0.060-0.043-0.113-0.063-0.168z"></path>
      <path d="M50.831 16.084c-0.152-0.855-0.484-1.46-0.995-1.813l-0.633-0.569c-1.028-0.924-2.051-1.839-3.070-2.75-2.693-2.409-5.237-4.684-7.801-7.051-1.131-1.044-2.382-2.008-4.145-1.349-2.32 0.867-3.546 2.231-3.644 4.055-0.117 2.18-1.489 3.286-3.134 4.408-2.342 1.597-4.921 2.74-7.578 3.865-0.398 0.168-0.947 0.454-1.127 0.99-0.172 0.513 0.058 1.019 0.305 1.447l1.403 2.426c2.121 3.669 4.315 7.463 6.438 11.212 0.39 0.689 0.875 1.035 1.449 1.035 0.29 0 0.603-0.088 0.938-0.266 0.887-0.47 1.799-0.934 2.681-1.383 2.22-1.13 4.516-2.299 6.644-3.671 3.001-1.936 4.762-4.098 5.246-6.428 0.154 0.407 0.388 0.747 0.693 1.002 0.425 0.355 0.971 0.535 1.604 0.535 0.239 0 0.49-0.026 0.751-0.078 1.313-0.26 2.556-1.191 3.325-2.493 0.598-1.012 0.829-2.122 0.652-3.127zM38.046 25.873c-2.087 1.346-4.361 2.504-6.56 3.623-0.886 0.451-1.801 0.917-2.695 1.39-0.474 0.251-0.748 0.253-1.117-0.398-2.125-3.753-4.32-7.549-6.442-11.22l-1.402-2.426c-0.19-0.328-0.266-0.554-0.227-0.671 0.024-0.072 0.133-0.221 0.597-0.418 2.703-1.145 5.329-2.309 7.743-3.955 1.718-1.171 3.407-2.533 3.547-5.141 0.077-1.432 1.068-2.485 3.029-3.218 0.283-0.106 0.546-0.157 0.799-0.157 0.778 0 1.466 0.48 2.37 1.314 2.569 2.372 5.116 4.65 7.812 7.061 0.806 0.721 1.615 1.445 2.428 2.173-0.367 0.119-0.712 0.255-1.037 0.407-0.288 0.122-0.566 0.275-0.83 0.454-1.707 1.081-2.71 2.766-3.152 5.214-0.384 2.125-2.020 4.133-4.863 5.966zM49.443 18.627c-0.635 1.075-1.659 1.844-2.739 2.058-0.714 0.141-1.297 0.045-1.683-0.278-0.281-0.235-0.455-0.59-0.516-1.055-0.235-1.777 1.514-4.017 3.402-4.359 0.237-0.043 0.451-0.065 0.642-0.065 0.829 0 1.24 0.417 1.408 1.362 0.129 0.727-0.054 1.557-0.514 2.337z"></path>
      <path d="M50.831 16.093c-0.152-0.855-0.484-1.46-0.995-1.813l-0.633-0.569c-1.028-0.924-2.051-1.839-3.070-2.75-2.693-2.409-5.237-4.684-7.801-7.051-1.131-1.044-2.382-2.008-4.145-1.349-2.32 0.867-3.546 2.231-3.644 4.055-0.117 2.18-1.489 3.286-3.134 4.408-2.342 1.597-4.921 2.74-7.578 3.865-0.398 0.168-0.947 0.454-1.127 0.99-0.172 0.513 0.058 1.019 0.305 1.447l1.403 2.426c2.121 3.669 4.315 7.463 6.438 11.212 0.39 0.689 0.875 1.035 1.449 1.035 0.29 0 0.603-0.088 0.938-0.266 0.887-0.47 1.799-0.934 2.681-1.383 2.22-1.13 4.516-2.299 6.644-3.671 3.001-1.936 4.762-4.098 5.246-6.428 0.154 0.407 0.388 0.747 0.693 1.002 0.425 0.355 0.971 0.535 1.604 0.535 0.239 0 0.49-0.026 0.751-0.078 1.313-0.26 2.556-1.191 3.325-2.493 0.598-1.012 0.829-2.122 0.652-3.127zM38.046 25.883c-2.087 1.346-4.361 2.504-6.56 3.623-0.886 0.451-1.801 0.917-2.695 1.39-0.474 0.251-0.748 0.253-1.117-0.398-2.125-3.753-4.32-7.549-6.442-11.22l-1.402-2.426c-0.19-0.328-0.266-0.554-0.227-0.671 0.024-0.072 0.133-0.221 0.597-0.418 2.703-1.145 5.329-2.309 7.743-3.955 1.718-1.171 3.407-2.533 3.547-5.141 0.077-1.432 1.068-2.485 3.029-3.218 0.283-0.106 0.546-0.157 0.799-0.157 0.778 0 1.466 0.48 2.37 1.314 2.569 2.372 5.116 4.65 7.812 7.061 0.806 0.721 1.615 1.445 2.428 2.173-0.367 0.119-0.712 0.255-1.037 0.407-0.288 0.122-0.566 0.275-0.83 0.454-1.707 1.081-2.71 2.766-3.152 5.214-0.384 2.125-2.020 4.133-4.863 5.966zM49.443 18.637c-0.635 1.075-1.659 1.844-2.739 2.058-0.714 0.141-1.297 0.045-1.683-0.278-0.281-0.235-0.455-0.59-0.516-1.055-0.235-1.777 1.514-4.017 3.402-4.359 0.237-0.043 0.451-0.065 0.642-0.065 0.829 0 1.24 0.417 1.408 1.362 0.129 0.727-0.054 1.557-0.514 2.337z"></path>
      <path d="M19.701 20.823c-0.028 0-0.056 0-0.084 0-2.504 0-5.008 0.009-7.511 0.024-0.58 0.003-1.164 0.229-1.735 0.394-0.212 0.061-0.505 0.172-0.438 0.488 0.053 0.253 0.243 0.31 0.456 0.322 0.059 0.021 0.136 0.009 0.208 0.004 3.034-0.003 6.069-0.002 9.103-0.002 0.315 0 0.63 0 0.945 0-0.238-0.411-0.475-0.822-0.711-1.23-0.050-0-0.1-0-0.15-0-0.028 0-0.056-0-0.084-0z"></path>
      <path d="M11.74 14.723c-0.301 0.035-0.481 0.171-0.555 0.432-0.023 0.081-0.039 0.171-0.041 0.277-0 0.013 0.001 0.026 0 0.040-0.002 0.135-0.002 0.27 0.004 0.403 0.001 0.024 0.004 0.047 0.005 0.072 0.006 0.119 0.015 0.239 0.028 0.356 0.006 0.052 0.016 0.104 0.023 0.156 0.012 0.087 0.024 0.173 0.040 0.259 0.014 0.073 0.033 0.145 0.050 0.218 0.015 0.062 0.028 0.124 0.045 0.185 0.024 0.085 0.052 0.168 0.081 0.251 0.016 0.048 0.031 0.096 0.048 0.143 0.033 0.087 0.071 0.173 0.109 0.258 0.019 0.043 0.037 0.086 0.058 0.128 0.040 0.082 0.085 0.162 0.13 0.242 0.026 0.046 0.052 0.093 0.080 0.139 0.043 0.069 0.090 0.138 0.137 0.206 0.026 0.038 0.048 0.077 0.076 0.114 0.015 0.021 0.032 0.038 0.047 0.058s0.028 0.042 0.044 0.062c0.027 0.034 0.055 0.063 0.083 0.094 0.009 0.010 0.017 0.020 0.025 0.029 0.44 0.493 0.996 0.753 1.69 0.764 0.032 0.001 0.063 0.005 0.095 0.005 1.729-0.008 3.457-0.010 5.186-0.011l-0.706-1.222c-1.485 0.001-2.97 0.003-4.455 0.006-0.343-0.005-0.609-0.106-0.827-0.301-0.016-0.015-0.033-0.031-0.049-0.048-0.045-0.045-0.088-0.097-0.129-0.15-0.031-0.041-0.064-0.081-0.093-0.123-0.009-0.013-0.017-0.026-0.025-0.040-0.034-0.051-0.065-0.102-0.095-0.154-0.026-0.045-0.050-0.091-0.073-0.137-0.012-0.023-0.023-0.046-0.034-0.070-0.027-0.057-0.053-0.115-0.076-0.173-0.007-0.017-0.013-0.033-0.020-0.050-0.023-0.060-0.045-0.12-0.064-0.181-0.008-0.024-0.015-0.048-0.022-0.072-0.016-0.052-0.031-0.104-0.044-0.157-0.014-0.057-0.028-0.115-0.040-0.174-0.004-0.019-0.009-0.038-0.012-0.057-0.034-0.177-0.058-0.358-0.075-0.544 1.779 0 3.553 0 5.327 0 0.017-0.124 0.045-0.251 0.088-0.379 0.12-0.36 0.327-0.642 0.555-0.866-2.146-0-4.292-0-6.438 0-0.064 0-0.125 0.003-0.181 0.010z"></path>
      <path d="M31.629 1.437c-0.074-0.093-0.152-0.178-0.232-0.26-0.185-0.205-0.393-0.358-0.62-0.472-0.039-0.021-0.078-0.041-0.118-0.059-0.004-0.001-0.007-0.003-0.011-0.004-0.151-0.067-0.312-0.116-0.485-0.147-0.212-0.045-0.433-0.071-0.665-0.080-0 0.004-0.001 0.007-0.001 0.011-0.694-0.061-1.692-0.148-2.604-0.228-1.509-0.131-3.021-0.197-4.535-0.197h-5.314c-1.514 0-3.027 0.066-4.535 0.197-0.912 0.079-1.91 0.166-2.604 0.228-0.001-0.004-0.001-0.007-0.001-0.011-0.232 0.010-0.453 0.036-0.665 0.080-0.172 0.031-0.334 0.080-0.485 0.147-0.004 0.001-0.007 0.003-0.011 0.004-0.040 0.018-0.079 0.039-0.118 0.059-0.227 0.114-0.436 0.266-0.62 0.472-0.080 0.082-0.158 0.167-0.232 0.26-0.786 0.98-1.428 2.043-1.911 3.201-0.198 0.475-0.373 0.958-0.551 1.423-0.040 0.035-0.086 0.056-0.135 0.072-0.101 0-0.201 0-0.302 0-0.031-0.006-0.061-0.013-0.094-0.022 0.046-0.151 0.091-0.301 0.137-0.452 0.074-0.236 0.153-0.488 0.247-0.784-0.003 0-0.006 0-0.009 0 0.002-0.006 0.003-0.011 0.005-0.017-0.491 0.035-0.967 0.058-1.435 0.086-0.049 0.002-0.099 0.006-0.148 0.008-0.003 0-0.006 0-0.009 0.001-0.46 0.025-0.913 0.059-1.361 0.126-0.022 0.003-0.045 0.011-0.067 0.015-0.030 0.004-0.059 0.006-0.089 0.011-0.435 0.068-0.883 0.302-1.247 0.579-0.011 0.008-0.024 0.015-0.035 0.024-0.005 0.004-0.009 0.008-0.014 0.013-0.016 0.013-0.034 0.024-0.050 0.037-0.401 0.329-0.59 0.75-0.591 1.164-0 0.015-0.002 0.029-0.002 0.044 0 0.004 0.001 0.008 0.001 0.013 0.018 0.564 0.391 1.101 1.072 1.362 0.84 0.322 1.727 0.278 2.605 0.232 0.001-0 0.002-0.001 0.003-0.001s0.002-0 0.003-0c0.060-0.003 0.134-0.079 0.185-0.159 0.001-0.001 0.001-0.002 0.002-0.002 0.015-0.023 0.026-0.046 0.036-0.067 0.002-0.004 0.005-0.008 0.006-0.011 0-0 0-0 0-0.001s0.001-0.002 0.001-0.003c0.055-0.138 0.104-0.279 0.151-0.419 0.056-0.166 0.11-0.335 0.168-0.505h0.547c-0.087 0.609-0.267 1.146-0.662 1.544-0.177 0.149-0.382 0.278-0.622 0.384-0.418 0.183-0.822 0.405-1.219 0.633-0.758 0.434-1.411 0.993-1.688 1.846-0.019 0.058-0.034 0.117-0.052 0.175-0.099 0.267-0.179 0.551-0.231 0.859-0.016 0.096-0.026 0.192-0.041 0.289-0.031 0.179-0.060 0.358-0.082 0.537-0.007 0.056-0.011 0.113-0.017 0.169-0.014 0.117-0.024 0.235-0.036 0.352-0.027 0.259-0.051 0.519-0.068 0.778-0.004 0.061-0.007 0.123-0.010 0.184-0.103 1.77 0.016 3.527 0.364 5.264 0.010 0.052 0.021 0.104 0.031 0.155 0.034 0.165 0.069 0.331 0.107 0.496 0.036 0.162 0.067 0.325 0.105 0.487 0.198 0.825 0.424 1.642 0.589 2.474 0.035 0.21 0.067 0.421 0.093 0.634 0.017 0.14 0.046 0.279 0.082 0.417 0.065 0.401 0.257 0.797 0.449 1.162 0.009 0.017 0.020 0.031 0.029 0.048 0.198 0.381 0.544 0.628 1 0.651 0.073 0.008 0.147 0.013 0.225 0.012 0.389-0.003 0.778-0.003 1.167-0.005 0.753 0.002 1.506-0 2.26-0.003 0.641 0.002 1.283 0.003 1.924 0.010 0.521 0.005 0.862-0.22 1.005-0.677 0.074-0.165 0.126-0.348 0.165-0.521 0.051-0.228 0.084-0.461 0.114-0.695 0.035-0.178 0.070-0.357 0.108-0.538h12.090c-0.24-0.416-0.479-0.832-0.718-1.246-0.55 0-1.1 0-1.65 0-5.331-0-10.662 0-15.993-0-0.226-0-0.407-0.004-0.557-0.017-0.028-0.003-0.059-0.005-0.085-0.009-0.005-0.001-0.010-0.002-0.015-0.003-0.37-0.063-0.551-0.248-0.688-0.741-0.334-1.208-0.646-2.432-0.836-3.669-0.053-0.343-0.092-0.687-0.124-1.032-0.094-1.252-0.070-2.514 0.094-3.785 0.014-0.11 0.028-0.211 0.041-0.311 0.075-0.466 0.168-0.931 0.286-1.388 0.015-0.060 0.035-0.117 0.056-0.173 0.273-0.616 0.769-0.912 1.94-1.511 0.572-0.293 1.149-0.592 1.576-1.095 0.123-0.097 0.247-0.196 0.377-0.295 0.47 0.417 1.108 0.581 1.827 0.58 0.112-0 0.224-0 0.335-0 0.044 0.001 0.088 0.002 0.133 0.002 3.877-0.006 7.755-0.008 11.632-0.009 2.588 0 5.175 0.003 7.763 0.006 0.576-0.421 1.029-0.813 1.368-1.229-3.043 0-6.087 0.001-9.13 0-4.019 0-8.038 0.001-12.057-0.001-0.733-0.001-1.235-0.373-1.353-1.029-0.032-0.178-0.008-0.383 0.046-0.558 0.529-1.726 1.356-3.302 2.39-4.776 0.052-0.061 0.101-0.124 0.155-0.184 0.149-0.166 0.397-0.305 0.616-0.336 0.881-0.126 1.767-0.227 2.654-0.294 0.471-0.036 4.35-0.262 8.064-0.261 3.372 0.002 6.608 0.228 7.035 0.261 0.887 0.067 1.773 0.168 2.654 0.294 0.219 0.031 0.467 0.17 0.616 0.336 0.054 0.060 0.102 0.123 0.155 0.184 0.212 0.302 0.413 0.61 0.607 0.922 0.297-0.264 0.643-0.518 1.046-0.758-0.22-0.328-0.449-0.65-0.698-0.961zM3.381 6.805c-0.052 0.146-0.104 0.291-0.16 0.434-0.005 0.012-0.015 0.024-0.024 0.035-0.005 0.006-0.010 0.011-0.015 0.017-0.044 0.042-0.111 0.077-0.156 0.073-0.424-0.038-0.849-0.082-1.269-0.152-0.129-0.078-0.25-0.171-0.373-0.26-0-0.021 0.006-0.044 0.012-0.067 0.099-0.132 0.184-0.285 0.315-0.364 0.135-0.082 0.274-0.143 0.416-0.191 0.012-0.004 0.023-0.008 0.035-0.012 0.050-0.016 0.101-0.029 0.152-0.041 0.034-0.008 0.067-0.017 0.102-0.024 0.061-0.013 0.122-0.024 0.183-0.033 0.003-0.001 0.007-0.001 0.010-0.002 0.161-0.023 0.325-0.035 0.492-0.043 0.16-0.002 0.316 0.007 0.462 0.029-0.079 0.245-0.135 0.443-0.181 0.6zM2.669 24.51c2.014 0 3.997 0 6.025 0-0.028 0.211-0.054 0.41-0.081 0.605-0.030 0.205-0.060 0.404-0.090 0.605-0.633 0-1.226 0-1.818 0-0.738-0-1.476-0.003-2.215 0-0.149-0-0.298-0-0.446-0-0.561-0-0.854-0.009-1.032-0.154-0.056-0.063-0.103-0.138-0.135-0.243-0.067-0.227-0.133-0.453-0.2-0.679-0.005-0.026-0.009-0.049-0.015-0.077-0.004-0.024 0.004-0.050 0.005-0.058z"></path>
    </symbol>
  </defs>
</svg>