<svg xmlns="http://www.w3.org/2000/svg" xml:space="preserve" style="enable-background:new 0 0 100 90.2195587" version="1.0" viewBox="0 0 100 90.219559">
  <path d="M41.68552 84.43451c-8.063041 0-16.126169.020354-24.18909-.006532-6.29202-.02098-10.902769-4.861595-10.032626-10.378082.964295-6.113388 1.836649-12.238056 2.76276-18.356197.733724-4.847183 1.231996-9.735996 2.288327-14.528286 2.0134-9.13424 8.130187-15.441855 17.960644-18.755835 11.945658-4.027044 23.963648-7.886612 35.950829-11.81748 4.183807-1.371963 8.364486-2.751493 12.554672-4.10807C85.6009 4.34084 92.521884 7.794802 93.686617 13.91682c.260857 1.371078.067353 2.832706-.08667 4.238132-.52063 4.75081-1.12458 9.49445-1.683212 14.242065-.526367 4.473236-1.054542 8.946408-1.546928 13.422615-.447022 4.063835-.840294 8.132264-1.269737 12.197636-.336045 3.181053-.533661 6.381374-1.068688 9.536617-1.368515 8.070603-8.636749 14.793793-17.716049 16.47123-1.756073.32444-3.582382.475403-5.378166.487404-7.750168.051788-15.50103.022148-23.25164.022148-.000007-.033386-.000007-.066772-.000007-.100159zm34.971417-26.040425c.090492-.848251.152572-1.554611.244606-2.257916.092216-.704723.190437-1.410045.32701-2.108852 1.455186-7.445534 4.975419-14.036037 10.563958-19.751232.502563-.513962.739944-1.027279.81549-1.675102.63363-5.433827 1.257752-10.868729 1.942132-16.297657.51429-4.079538-3.133973-7.653567-7.791596-7.578524-1.469818.023682-2.78247.524013-4.118362.961639-15.315022 5.017075-30.617897 10.063325-45.949208 15.041207-4.031648 1.309027-7.652212 3.116104-10.601366 5.897385-.721557.680484-1.374754 1.417558-2.152101 2.22492.316961.030933.441978.044391.56729.055168 1.5273.131298 3.053514.274742 4.582982.381905.282532.019798.617012-.048943.862135-.175599 4.258547-2.200418 8.509226-4.412769 12.754996-6.632404.672397-.35152 1.332023-.458885 2.001747-.046179.673202.414847.788475 1.002707.62564 1.678906-.63615 2.641712-1.26245 5.28528-1.888748 7.928835-.14722.621402-.28014 1.245453-.457824 2.038791 1.0218-.54032 1.859695-.980487 2.694336-1.425403 1.405944-.749462 2.082637-.60281 2.976406.626007.088134.121178.350486.28363.429893.248222.945038-.421455 1.8707-.876838 2.832497-1.338218-.217026-.3479-.375454-.606015-.538155-.862007-.972637-1.530358-1.963295-3.052033-2.912979-4.593422-.543911-.882807-.115753-1.811257.911194-2.102629.79877-.22663 1.521698.054092 2.003856.80496 1.178395 1.835114 2.347191 3.67503 3.518773 5.513554 1.609832 2.526272 3.225528 5.049663 4.823848 7.581608.494183.782852.254856 1.593784-.54079 2.005455-.833783.4314-1.768448.202049-2.293904-.577671-.331089-.4913-.63755-.995545-.956371-1.493325-.7892-1.23217-1.579159-2.46397-2.402912-3.749122-1.039509.503425-2.025124.980743-3.060951 1.482383.278759.446911.518833.821831.748306 1.201752.483227.800037.34571 1.506592-.473194 2.03856-2.512924 1.632403-4.977436 3.33264-7.582897 4.84191-3.936634 2.28038-7.977053 4.420845-11.970913 6.624241-.300146.165585-.614521.328316-.864844.544335-1.689176 1.457649-3.564888 2.687904-5.659137 3.650787-.883578.40625-1.790272.773243-2.72117 1.172985.574441 1.137535 1.149886 2.224846 1.66899 3.332771.186816.398713.4446.507805.907465.505211 2.903223-.016327 5.806801-.023056 8.709818.004067.59144.005531.856442-.168926 1.05001-.65541.761994-1.915112 1.56632-3.817204 2.370336-5.719056.383438-.907002 1.24902-1.293457 2.16177-.998612.900795.29099 1.28017 1.111122.912475 1.997815-.445335 1.073905-.902538 2.143962-1.35044 3.217044-.283612.679467-.559625 1.361409-.862878 2.100327H52.10572c-.086948-.302021-.15686-.547753-.228435-.79311-1.146649-3.930946.939213-7.368015 5.279892-8.686935 1.955524-.594185 3.95388-.55676 5.955768-.250893 3.278077.500843 6.33709 1.614487 9.416184 2.6692 1.34713.461445 2.698265.913739 4.127808 1.397328zM58.472679 71.611069c-.17099-.126847-.298508-.234535-.440338-.324639-1.632446-1.03711-2.99245-2.30571-4.060532-3.806953-.262794-.369385-.557117-.480148-1.029796-.479668-10.245178.01046-20.490376.00808-30.735565.008171-.235218 0-.470435-.000007-.768427-.000007.051937.185142.06268.281845.10508.36612 1.259336 2.502906 2.513791 5.007812 3.801183 7.499442.08912.172478.426829.347939.649428.348427 8.37015.018517 16.740362.01931 25.110517.003204.229038-.000442.541096-.16333.670746-.33512.399269-.529069.919926-.766725 1.62997-.757112 1.04881.014206 2.098298.01294 3.146897-.006645.193443-.003608.481785-.076935.559986-.200348.477443-.753524.90688-1.5308 1.360851-2.314872zM13.159574 58.477085c2.688297-.347443 6.892321-2.082836 9.43024-3.964298 4.890866-3.625778 7.064632-8.224644 6.110461-13.859856-.35773-2.112724-1.5604-3.71973-3.973451-4.429878-2.181177-.641914-4.405426-.503899-6.62754-.233356-.182305.022193-.40103.242542-.481421.414997-.449639.964622-.848683 1.947582-1.293165 2.914173-.19117.415733-.028327.59779.409892.746738.915745.311268 1.810244.670937 2.721053.994042.681165.241642 1.06871.65581 1.191732 1.306068.327257 1.729786.676304 3.456493 1.035778 5.18132.139856.671047-.035068 1.214665-.560848 1.734314-2.454462 2.425858-4.862833 4.88824-7.328884 7.304733-.575912.564343-.57753 1.185284-.633847 1.891003zm4.948296 23.09074c.133925 0 .27028-.01461.401362.00245.682636.088828 1.080228-.147004 1.406538-.708688.732742-1.261276 1.548252-2.486259 2.368072-3.70607.25711-.382568.266476-.689437.060475-1.093261-2.300263-4.509094-4.58078-9.026055-6.863175-13.542256-.70689-1.398738-.697794-1.385425-2.382973-1.01208-.387033.085746-.480382.249706-.526377.559215-.560436 3.77129-1.164799 7.537723-1.686077 11.313152-.152248 1.102677-.297784 2.26699-.065537 3.338623.661235 3.051033 3.472236 4.843811 7.287692 4.848915zm66.35396-12.980942c-.317482-.031646-.490456-.044792-.66201-.066612-2.202873-.280288-4.462685-.375625-6.594994-.886345-3.26345-.781646-6.441063-1.84439-9.651123-2.798263-2.523712-.749924-5.05788-1.443249-7.77219-1.26754-1.369056.088638-2.658779.413502-3.88469 1.03659.102986.204636.169602.369889.264726.52115 1.953857 3.1071 4.80329 5.037437 8.89735 5.470641 6.011116.636048 12.025124.468865 18.043816.189629.1978-.009186.505386-.095047.562835-.217835.293793-.627922.522232-1.279708.79628-1.981414zm.844612-5.666526c-.199386-.030705-.284416-.054932-.36959-.055306-2.802216-.01244-5.498711-.560657-8.11467-1.378776-3.489136-1.091202-6.93097-2.30003-10.411522-3.413418-2.127487-.680554-4.308682-1.183651-6.61026-1.027645-1.52713.103508-2.864014.59941-3.919846 1.592262-.914879.860294-1.124538 1.90007-.928406 3.113327 1.905919-.766117 3.801266-1.143867 5.798176-1.117023 2.302979.030963 4.512593.490158 6.679974 1.121715 3.366531.98098 6.703071 2.044937 10.08609 2.978203 2.242302.618584 4.572082.88803 6.93283.873024.299523-.0019.596932.024536.631356-.348816.07045-.763931.147202-1.527412.225868-2.337547zm2.494507-23.69968a2336.985638 2336.985638 0 0 1-.188812-.03664c-4.67579 6.054164-7.38285 12.698009-7.686165 20.096458 1.769035.437618 3.476273.682544 5.229698.67096.38369-.002545.485603-.156312.515122-.464463.163597-1.708012.343673-3.414807.523346-5.12159.433715-4.120216.869941-8.240219 1.306083-12.36023.098282-.928325.200386-1.856338.300728-2.784496zM49.863605 78.13874c-.343101 0-.583091-.000007-.823078 0-7.653919.000329-15.307838.004647-22.961725-.0084-.485071-.000831-.805622.099648-.994396.507485-.100336.216774-.263367.41056-.393816.616836-.461512.729737-.92118 1.460396-1.431486 2.269928.314743.021706.506986.046257.69929.046616 7.787648.014496 15.575313.02356 23.362922.047607.458656.00142.734611-.104965.934181-.485733.430855-.822036.913433-1.622848 1.368069-2.435302.084125-.150345.136364-.314629.24004-.559037zM28.842972 34.9814c1.719631 1.397758 2.642898 3.057708 3.041853 4.945377.649408 3.072677.309404 6.080723-.844162 9.02613-.043032.109879-.048262.231316-.096726.477498 1.68299-.916974 3.226916-1.775486 4.793673-2.60014.411934-.21682.525646-.467052.472862-.866951-.175835-1.332142-.354584-2.665146-.469952-4.002018-.104507-1.21103-.324485-2.451225-.14207-3.636318.302913-1.967926.889572-3.90162 1.352096-5.850586.139454-.587626.263615-1.178084.433903-1.94295L28.842972 34.9814zm22.796924 46.635742c.393383 0 .613728-.000183.834072.00003 4.284367.004036 8.56876.002693 12.853096.014054 2.950547.00782 5.747094-.576287 8.416749-1.666016.144035-.058792.271125-.149986.40612-.226105-.358574-.13491-.683785-.135078-1.008988-.134887-2.699989.001571-5.400016-.00377-8.09993.00962-.695297.003441-1.198524-.227371-1.700198-.664848-.574208-.500732-1.248517-.956268-1.96869-1.272675-1.49784-.658073-3.142784-.679817-4.781024-.63903-.77697.019348-1.715058-.190697-2.285626.122299-.570812.313149-.78318 1.145058-1.136593 1.75682-.493118.853593-.971294 1.713921-1.528988 2.700738zm8.918648-7.221367c1.751011.398536 3.260357.946876 4.538883 1.93592.284226.219872.733986.380547 1.10949.383652 3.483253.02871 6.966942.01693 10.450508.016915 2.66716-.000008 2.668716.001045 4.289345-1.89032.270622-.315834.520996-.64521.754104-.935234-1.957893 0-3.82891-.005509-5.699875.001075-4.756904.016747-9.514602.051568-14.179458-.980781-.136818-.030281-.390576.014862-.448315.09986-.282627.416055-.517246.85756-.814682 1.368913zm-46.412337-22.78246c.064582.02742.129165.054844.193746.082268 1.28759-1.295192 2.582187-2.585083 3.850904-3.89455.115068-.118767.113945-.370651.081364-.548508-.20988-1.14569-.438324-2.28883-.676169-3.43029-.028993-.13913-.11358-.330936-.235378-.382732-.574822-.24445-1.171566-.44865-1.877522-.710636-.454856 3.022678-.8959 5.953567-1.336945 8.884449zm25.196818-6.99369c.968533-.616993 1.807358-1.154922 2.650376-1.687672 1.857055-1.173576 1.849899-1.16814.637737-2.902496-.204891-.293144-.373062-.319202-.687443-.146065-.851059.468697-1.722225.908875-2.573921 1.376705-.1534.084263-.367447.253773-.357742.371308.07857.951961.203872 1.900913.330993 2.98822z"/>
  <path d="M90.90194 2.893063c-5.202492-.114318-10.347756.255144-15.422791 1.324752-3.834725.808206-7.48243 2.098434-11.163956 3.302573C45.731911 13.598522 27.1592 19.70205 8.557258 25.735238c-1.716896.556842-3.613302.682016-5.426849 1.005466-.37208.06636-.74534.128583-1.119855.183069-.966048.140548-1.809178-.338293-1.977445-1.117558-.17451-.808182.351793-1.527288 1.320354-1.706653 1.331973-.246659 2.667865-.491589 4.014664-.657505 2.040678-.251395 3.89433-.99957 5.794052-1.619314 12.853944-4.193347 25.700489-8.404401 38.550018-12.608316C56.136715 7.112551 62.55172 4.987473 68.99086 2.921123 74.875008 1.032869 80.969643.09658 87.226067.024874c3.662551-.041977 7.32611-.018009 10.989204-.018518.832764-.000116 1.441612.353818 1.684708.950297.221458.543408.07933 1.233517-.467888 1.548509-.38527.221776-.90033.364334-1.36071.371235-2.389237.035813-4.779526.016666-7.169442.016666zM49.962547 90.217941c-15.926208-.000007-31.852417.000077-47.778625-.000694-.26778-.000008-.539053.01207-.802678-.02005-.782815-.09539-1.359812-.690224-1.374842-1.39167-.015448-.720925.508404-1.301415 1.311039-1.424942.261783-.040276.533413-.042122.800541-.042137 31.941765-.001747 63.883522-.001847 95.825287-.001023 1.3423.00003 2.0626.522744 2.041702 1.468514-.016075.728103-.61673 1.317253-1.44043 1.40049-.198677.02008-.40145.011146-.60234.011146-15.993219.000404-31.986436.000374-47.979654.000366z"/>
</svg>
