<?xml version="1.0" encoding="utf-8"?>
<!-- Generator: Adobe Illustrator 25.0.0, SVG Export Plug-In . SVG Version: 6.00 Build 0)  -->
<svg version="1.0" xmlns="http://www.w3.org/2000/svg" xmlns:xlink="http://www.w3.org/1999/xlink" x="0px" y="0px"
	 viewBox="0 0 100 63.0188293" style="enable-background:new 0 0 100 63.0188293;" xml:space="preserve">
<g id="Слой_1">
</g>
<g id="Слой_2">
</g>
<g id="Слой_3">
	<g>
		<path style="fill:none;" d="M7.7831464,29.676775c0.5158467,0.8334236,1.3686585,1.4430752,2.3606486,1.5502739
			c0.0954542,0.0092525,0.1911898,0.0162106,0.2868452,0.0240555c1.0319338,0.0781975,2.0696201,0.0952129,3.105979,0.1024933
			c0.0930414,0.0004025,0.1862831,0.0012074,0.2792835,0.0016079c0.4748964,0.0020523,0.9563503-0.1330242,1.5849476-0.2439632
			c-2.4684916-1.9744492-5.1926947-2.9394073-7.9702368-3.9857426C7.1792068,27.9855518,7.3492384,28.9179688,7.7831464,29.676775z"
			/>
		<path style="fill:none;" d="M5.0290961,48.3830452c0.0099759,0.0534973,0.0190263,0.0999184,0.0286403,0.1509247
			c0.1303697,0.4446068,0.2605782,0.8907433,0.3931599,1.3374825c0.0613432,0.2066383,0.1540623,0.3557129,0.2649226,0.4792824
			c0.3505211,0.2852364,0.9265041,0.3024521,2.0321302,0.3028145c0.2927585,0.0000801,0.5860791,0.0000801,0.8789582,0.0001602
			c1.4535732-0.0059929,2.9073887-0.0006409,4.3610821-0.0006027c1.1668491,0.000042,2.3342209,0,3.5803947,0
			c0.0588493-0.3962173,0.1169338-0.7877693,0.1769905-1.1918678c0.0512867-0.3856392,0.1033783-0.7773895,0.1585674-1.1922722
			c-3.9943514,0-7.8989191,0-11.86483,0C5.0375032,48.2847748,5.0203671,48.3363037,5.0290961,48.3830452z"/>
		<path style="fill:none;" d="M4.9176326,12.2472086c-0.0068383,0.0010462-0.0136366,0.0019712-0.0204344,0.0030575
			c-0.1216006,0.0178194-0.2415113,0.041029-0.3610606,0.0658884c-0.0678997,0.0145216-0.1342711,0.0306511-0.2004814,0.0470629
			c-0.1002412,0.0248995-0.2003613,0.0502014-0.2989531,0.0815363c-0.0234108,0.0071602-0.0451324,0.0154066-0.0681813,0.0228081
			c-0.2806907,0.0942068-0.554704,0.2153244-0.8200688,0.3765068c-0.2569578,0.1560326-0.4258628,0.457118-0.6199889,0.7165689
			C2.5165975,13.6053276,2.5042887,13.6503,2.5047312,13.6920938c0.2424366,0.1749382,0.4801266,0.358325,0.7346306,0.5117025
			c0.8271885,0.1360416,1.6635079,0.2231283,2.4991841,0.2985106c0.0885353,0.0080051,0.2207952-0.0607395,0.3077216-0.1432819
			c0.0100965-0.0107403,0.0203137-0.0213194,0.0298872-0.033226c0.0195899-0.0230885,0.0391393-0.0465002,0.0481896-0.0693474
			c0.1114235-0.2817774,0.2138767-0.5675364,0.3156867-0.8541803c0.0893397-0.3086462,0.2007232-0.700037,0.3559918-1.1818523
			c-0.2871671-0.0438862-0.5948887-0.061223-0.9095693-0.0569592C5.557694,12.1778603,5.2342038,12.2018347,4.9176326,12.2472086z"
			/>
		<path d="M14.5393105,27.546133c-0.135519-0.0633545-0.2741346-0.1200714-0.4101753-0.1822605
			c-2.4329338-1.3306847-5.068119-2.2099247-7.6740198-3.1507092c-0.0162106-0.0058327-0.0298471-0.0035-0.0458164-0.0084877
			c-0.2119055-0.0678196-0.3942461-0.0623074-0.5429578,0.0081654c-0.0052295,0.0024147-0.0108209,0.0037022-0.0159698,0.0062752
			c-0.0694284,0.0355186-0.1299672,0.0870075-0.1840696,0.149437c-0.0147223,0.0165329-0.0293646,0.0323009-0.04284,0.050724
			c-0.0476265,0.0659695-0.0868459,0.1444473-0.11975,0.2319775c-0.0030169,0.0087299-0.0089297,0.0138779-0.011786,0.0228081
			c-0.0088897,0.027956-0.0167336,0.055872-0.0255427,0.083828c-0.0010862,0.0038223-0.0027351,0.0069199-0.0037813,0.0107803
			c-0.0010457,0.0039024-0.0020514,0.0078449-0.0030971,0.0117474c-0.2324204,0.7381287-0.428719,1.4755764-0.5244145,2.2184525
			c-0.0103378,0.0594921-0.0270715,0.118021-0.0364842,0.1776333c-0.23596,1.4963741,0.252171,3.0608063,1.1755376,4.276289
			c0.0291233,0.0413914,0.0621076,0.0774326,0.0919948,0.1177387c0.0556717,0.0697098,0.1100559,0.1402245,0.1686239,0.2073193
			c0.8915081,1.0935593,2.0954452,1.7596054,3.7377143,1.9041748c1.3625441,0.1199532,2.7147503,0.1695099,4.0503035,0.0600548
			c0.0099754-0.0006027,0.020112-0.0006027,0.0300875-0.0012054c0.5728855-0.035759,1.1369219-0.1191864,1.6930742-0.2413902
			c0.6985893-0.1409492,1.3920689-0.3336678,2.0784702-0.6012459c0.3257828-0.1269875,0.6426353-0.2785988,0.9571152-0.4320984
			c0.1322994-0.0645599,0.2477055-0.1636353,0.4001579-0.2669716c-0.0121059-0.0251007-0.0266285-0.0478668-0.0389366-0.0727692
			c0.0196304-0.0120239,0.0397415-0.0221634,0.0593319-0.0343094C18.2293968,29.952961,16.5609016,28.4912205,14.5393105,27.546133z
			 M13.8159027,31.3552055c-0.0930004-0.0004005-0.1862421-0.0012054-0.2792835-0.0016079
			c-1.0363588-0.0072803-2.0740452-0.0242958-3.105979-0.1024933c-0.0956554-0.0078449-0.191391-0.0148029-0.2868452-0.0240555
			c-0.9919901-0.1071987-1.8448019-0.7168503-2.3606486-1.5502739c-0.433908-0.7588062-0.6039395-1.6912231-0.3525329-2.5512753
			c2.7775421,1.0463352,5.5017452,2.0112934,7.9702368,3.9857426C14.772253,31.2221813,14.2907991,31.3572578,13.8159027,31.3552055
			z"/>
		<path d="M14.3631239,43.2521744c-0.2125092-1.0844269-0.6794415-1.9010773-1.3661642-2.5173264
			c-0.0476665-0.0427589-0.0977068-0.0839882-0.1457348-0.1265869c-0.6818962-0.7600517-1.4933167-1.3851509-2.4250097-1.8548584
			c-0.0704737-0.0355186-0.1429596-0.0669327-0.2135544-0.1021729c-0.073451-0.0420341-0.1440058-0.0903435-0.2183018-0.1304474
			c-1.476059-0.7963791-3.0357466-1.4364777-4.5635753-2.1146736c-0.1824608-0.0841103-0.3660483-0.1670151-0.5480666-0.2518082
			c-0.179605,1.6452026,0.3479066,3.1018333,1.4283524,4.1560936c0.0176187,0.0173378,0.0369263,0.0326614,0.0548267,0.0496788
			c0.5460153,0.5172119,1.2170095,0.9423523,2.0252924,1.2259407c1.0090456,0.3540192,2.0286312,0.6779938,3.0481358,1.0021667
			c0.9823771,0.3303261,1.9792747,0.6580429,2.9984579,1.0140724c-0.0018511-0.0137558-0.0062752-0.0247765-0.0082064-0.0384521
			c0.0204744,0.0067978,0.0372486,0.0123863,0.0580854,0.0193062
			C14.4412813,43.4653282,14.4028664,43.3597374,14.3631239,43.2521744z"/>
		<path style="fill:none;" d="M5.4508963,49.8714523c0.0613432,0.2066383,0.1540623,0.3557129,0.2649226,0.4792824
			c0.3505211,0.2852364,0.9265041,0.3024521,2.0321302,0.3028145c0.2927585,0.0000801,0.5860791,0.0000801,0.8789582,0.0001602
			c1.4535732-0.0059929,2.9073887-0.0006409,4.3610821-0.0006027c1.1668491,0.000042,2.3342209,0,3.5803947,0
			c0.0588493-0.3962173,0.1169338-0.7877693,0.1769905-1.1918678c0.0512867-0.3856392,0.1033783-0.7773895,0.1585674-1.1922722
			c-3.9943514,0-7.8989191,0-11.86483,0c-0.0016088,0.0158081-0.0187449,0.067337-0.010016,0.1140785
			c0.0099759,0.0534973,0.0190263,0.0999184,0.0286403,0.1509247C5.1881061,48.9785767,5.3183146,49.4247131,5.4508963,49.8714523z"
			/>
		<path style="fill:none;" d="M4.9176326,12.2472086c-0.0068383,0.0010462-0.0136366,0.0019712-0.0204344,0.0030575
			c-0.1216006,0.0178194-0.2415113,0.041029-0.3610606,0.0658884c-0.0678997,0.0145216-0.1342711,0.0306511-0.2004814,0.0470629
			c-0.1002412,0.0248995-0.2003613,0.0502014-0.2989531,0.0815363c-0.0234108,0.0071602-0.0451324,0.0154066-0.0681813,0.0228081
			c-0.2806907,0.0942068-0.554704,0.2153244-0.8200688,0.3765068c-0.2569578,0.1560326-0.4258628,0.457118-0.6199889,0.7165689
			C2.5165975,13.6053276,2.5042887,13.6503,2.5047312,13.6920938c0.2424366,0.1749382,0.4801266,0.358325,0.7346306,0.5117025
			c0.8271885,0.1360416,1.6635079,0.2231283,2.4991841,0.2985106c0.0885353,0.0080051,0.2207952-0.0607395,0.3077216-0.1432819
			c0.0100965-0.0107403,0.0203137-0.0213194,0.0298872-0.033226c0.0195899-0.0230885,0.0391393-0.0465002,0.0481896-0.0693474
			c0.1114235-0.2817774,0.2138767-0.5675364,0.3156867-0.8541803c0.0893397-0.3086462,0.2007232-0.700037,0.3559918-1.1818523
			c-0.2871671-0.0438862-0.5948887-0.061223-0.9095693-0.0569592C5.557694,12.1778603,5.2342038,12.2018347,4.9176326,12.2472086z"
			/>
		<g>
			<path d="M99.8852615,31.6739101c-0.2985535-1.6842251-0.9539413-2.876173-1.9593277-3.5706596l-1.246933-1.12043
				c-2.0241318-1.8191376-4.0398865-3.6215439-6.04599-5.4152603c-5.3039169-4.7439842-10.3143539-9.2250586-15.3621216-13.8863401
				c-2.22686-2.0553408-4.6918488-3.954608-8.162796-2.656786c-4.5682793,1.7071524-6.9824257,4.394187-7.1755066,7.9861259
				c-0.2304115,4.2931414-2.9316063,6.4714098-6.1721382,8.6808939c-4.6120453,3.1456013-9.6913452,5.3956299-14.924469,7.6118717
				c-0.7832603,0.3317757-1.865799,0.894928-2.2191353,1.9501114c-0.3378906,1.0094872,0.1139183,2.0070686,0.6004791,2.8495445
				l2.7623367,4.7784157c4.1776161,7.2253914,8.497467,14.6969566,12.6783028,22.0809937
				c0.7684593,1.3567123,1.7235641,2.0373192,2.8530807,2.0373192c0.5715179,0,1.1874466-0.1740913,1.8464928-0.5232468
				c1.7460899-0.9248543,3.543026-1.8394127,5.2801056-2.724041c4.3726273-2.2255745,8.8939285-4.527092,13.0837708-7.230217
				c5.9100266-3.8116875,9.378479-8.0696716,10.3304825-12.6581078c0.3040237,0.80056,0.7633514,1.4711113,1.3653564,1.9738846
				c0.8371658,0.6988297,1.9114609,1.0545425,3.1581573,1.0545425c0.469986,0,0.9641953-0.050766,1.4789505-0.1526566
				c2.5859146-0.5111809,5.0338898-2.3461685,6.5473175-4.9087067
				C99.7794266,35.8379288,100.2348938,33.651413,99.8852615,31.6739101z M74.7083817,50.9524612
				c-4.1093903,2.6513176-8.5875702,4.9306297-12.9183617,7.1352844c-1.7441597,0.8878479-3.5475311,1.8059464-5.3064919,2.7378807
				c-0.9338684,0.4942856-1.4738464,0.499115-2.1998291-0.7835846c-4.1853409-7.3914375-8.507122-14.8668671-12.6873131-22.0957947
				l-2.7610474-4.7777748c-0.3739319-0.6468201-0.5238914-1.0915489-0.4466591-1.3219566
				c0.0469818-0.1412697,0.2625885-0.4360409,1.1758575-0.8228436c5.3232269-2.2545357,10.4945641-4.5467224,15.2488441-7.7888622
				c3.3827667-2.3066673,6.7089005-4.988554,6.9843597-10.123848c0.1518898-2.8205824,2.1026459-4.8933001,5.9642525-6.336576
				c0.5573578-0.2082052,1.0748138-0.3082852,1.5736084-0.3082852c1.5330582,0,2.8878403,0.9444847,4.6673965,2.5879202
				c5.0593491,4.671258,10.0749283,9.1568365,15.3846436,13.9059706c1.5877609,1.4197845,3.1813202,2.8450394,4.7806702,4.2796268
				c-0.7226028,0.2351952-1.401886,0.502491-2.0415878,0.8014431c-0.5664062,0.2398224-1.1139069,0.5412292-1.6348648,0.8934803
				c-3.3608475,2.1284695-5.3362579,5.4470806-6.2066879,10.2680149
				C83.5295792,43.3875732,80.3077164,47.3408928,74.7083817,50.9524612z M97.1523666,36.6838226
				c-1.2503128,2.1171646-3.2669983,3.632164-5.393219,4.0526772c-1.4063492,0.2783165-2.5532455,0.0888977-3.3147888-0.5472641
				c-0.552887-0.4618225-0.8952484-1.1610146-1.0162048-2.0779877c-0.4627457-3.4994583,2.9814835-7.9117088,6.7003708-8.5835876
				c0.4675827-0.0843925,0.88797-0.1281567,1.2642365-0.1281567c1.6331787,0,2.4425507,0.8217583,2.7721939,2.6826496
				C98.4184113,33.5148506,98.0591202,35.1492348,97.1523666,36.6838226z"/>
			<path d="M99.8852615,31.6930275c-0.2985535-1.6842232-0.9539413-2.876173-1.9593277-3.5706577l-1.246933-1.12043
				c-2.0241318-1.8191395-4.0398865-3.6215439-6.04599-5.4152603c-5.3039169-4.7439861-10.3143539-9.2250595-15.3621216-13.8863411
				c-2.22686-2.0553403-4.6918488-3.9546077-8.162796-2.656786c-4.5682793,1.7071524-6.9824257,4.3941879-7.1755066,7.9861259
				c-0.2304115,4.2931423-2.9316063,6.4714108-6.1721382,8.6808929c-4.6120453,3.1456013-9.6913452,5.3956318-14.924469,7.6118717
				c-0.7832603,0.3317776-1.865799,0.894928-2.2191353,1.9501133c-0.3378906,1.0094872,0.1139183,2.0070686,0.6004791,2.8495445
				l2.7623367,4.7784157c4.1776161,7.2253914,8.497467,14.6969566,12.6783028,22.0809937
				c0.7684593,1.3567123,1.7235641,2.0373192,2.8530807,2.0373192c0.5715179,0,1.1874466-0.1740952,1.8464928-0.5232468
				c1.7460899-0.9248543,3.543026-1.8394127,5.2801056-2.724041c4.3726273-2.2255745,8.8939285-4.527092,13.0837708-7.230217
				c5.9100266-3.8116875,9.378479-8.0696754,10.3304825-12.6581078c0.3040237,0.80056,0.7633514,1.4711113,1.3653564,1.9738846
				c0.8371658,0.6988297,1.9114609,1.0545387,3.1581573,1.0545387c0.469986,0,0.9641953-0.0507622,1.4789505-0.1526527
				c2.5859146-0.5111809,5.0338898-2.3461685,6.5473175-4.9087067
				C99.7794266,35.857048,100.2348938,33.6705322,99.8852615,31.6930275z M74.7083817,50.9715805
				c-4.1093903,2.6513138-8.5875702,4.9306297-12.9183617,7.1352844c-1.7441597,0.8878479-3.5475311,1.8059464-5.3064919,2.7378807
				c-0.9338684,0.4942856-1.4738464,0.4991112-2.1998291-0.7835846c-4.1853409-7.3914375-8.507122-14.8668671-12.6873131-22.0957947
				l-2.7610474-4.7777748c-0.3739319-0.6468201-0.5238914-1.0915489-0.4466591-1.3219566
				c0.0469818-0.1412716,0.2625885-0.4360409,1.1758575-0.8228455c5.3232269-2.2545338,10.4945641-4.5467205,15.2488441-7.7888622
				c3.3827667-2.3066654,6.7089005-4.9885521,6.9843597-10.123847c0.1518898-2.8205824,2.1026459-4.8933001,5.9642525-6.336576
				c0.5573578-0.2082047,1.0748138-0.3082848,1.5736084-0.3082848c1.5330582,0,2.8878403,0.9444847,4.6673965,2.5879207
				c5.0593491,4.671257,10.0749283,9.1568365,15.3846436,13.9059706c1.5877609,1.4197845,3.1813202,2.8450394,4.7806702,4.2796249
				c-0.7226028,0.2351971-1.401886,0.5024929-2.0415878,0.801445c-0.5664062,0.2398224-1.1139069,0.5412292-1.6348648,0.8934803
				c-3.3608475,2.1284695-5.3362579,5.4470768-6.2066879,10.2680149
				C83.5295792,43.4066925,80.3077164,47.3600121,74.7083817,50.9715805z M97.1523666,36.7029419
				c-1.2503128,2.1171646-3.2669983,3.632164-5.393219,4.0526772c-1.4063492,0.2783165-2.5532455,0.0888977-3.3147888-0.5472641
				c-0.552887-0.4618225-0.8952484-1.1610146-1.0162048-2.0779877c-0.4627457-3.4994621,2.9814835-7.9117088,6.7003708-8.5835876
				c0.4675827-0.0843925,0.88797-0.1281586,1.2642365-0.1281586c1.6331787,0,2.4425507,0.8217583,2.7721939,2.6826515
				C98.4184113,33.5339699,98.0591202,35.168354,97.1523666,36.7029419z"/>
			<path style="fill:none;" d="M15.671566,19.3561459c-0.0878925,0.0001221-0.1741352-0.0028954-0.2614231-0.0038605
				c-0.2200718,0.0002403-0.4401836,0.0001602-0.6602545,0.0004025c-1.4153595,0.0015678-2.6724339-0.3207951-3.5981731-1.1417084
				c-0.2552691,0.194849-0.500762,0.388855-0.7421131,0.5807285c-0.839819,0.9903011-1.9774246,1.5808849-3.1035657,2.1569901
				c-2.3060231,1.1796799-3.2831707,1.7614155-3.8206179,2.9753685c-0.042156,0.1099739-0.0801284,0.222847-0.1104982,0.340826
				c-0.2318172,0.8999557-0.4166112,1.8149166-0.563473,2.7334156c-0.0264277,0.1971836-0.0528557,0.395895-0.0808122,0.6122646
				c-0.3234096,2.5032482-0.3704326,4.9876289-0.1855984,7.4534264c0.0619063,0.6784363,0.1399028,1.3559875,0.2436433,2.0314484
				c0.374254,2.4364319,0.9880486,4.8455925,1.6463723,7.2251053c0.2685423,0.9705925,0.626586,1.3351898,1.3544989,1.4585609
				c0.0104585,0.0014877,0.0194688,0.0036621,0.0300884,0.0051079c0.0517697,0.0082092,0.1124692,0.0115471,0.1681004,0.01754
				c0.2949305,0.0273933,0.6509624,0.0341911,1.0959725,0.0343933c10.4984636,0.0000801,20.9969292,0.0000381,31.4953918,0.0000801
				c1.0834618,0,2.1668816,0,3.2503471,0c-0.4653664-0.8060722-0.9263039-1.6040573-1.3896561-2.4059448
				c-0.6202316,0.000042-1.2404633-0.0004425-1.8606911-0.0004425c-5.9759598,0.000042-11.9518776-0.0023308-17.9277954,0.0042648
				c-0.1432419,0.0097771-0.2940464,0.0336304-0.4104176-0.0082054c-0.4207134-0.0248985-0.7934399-0.1369667-0.8988285-0.6344681
				c-0.1320992-0.6236916,0.4432793-0.8414688,0.8615799-0.9620247c1.1233253-0.3236923,2.2742462-0.7686195,3.4165573-0.7754974
				c4.9307098-0.0296478,9.86166-0.0463028,14.7925301-0.0467033c0.0554733,0,0.1109009-0.0005226,0.1663742-0.0005226
				c0.0554695,0,0.1108971,0.0005226,0.1663704,0.0005226c0.0981483,0,0.1963387,0.000885,0.294487,0.000927
				c-0.2250595-0.3893013-0.4533768-0.7846718-0.6776733-1.1726036l-0.7107773-1.229599
				c-3.4044495,0.0010071-6.808897,0.006115-10.2133465,0.020916c-0.064642,0.0002823-0.1244164-0.0074005-0.1877708-0.0091705
				c-1.3657227-0.0222054-2.4605694-0.5341492-3.3274193-1.5051842c-0.0169754-0.0187035-0.0334263-0.038372-0.0502415-0.0573997
				c-0.0541019-0.0623894-0.1106186-0.1199913-0.1629105-0.186039c-0.0316982-0.0400238-0.0567589-0.0823021-0.0876102-0.1226082
				c-0.0303707-0.039341-0.0631142-0.0738945-0.0928802-0.1144409c-0.0540218-0.0735321-0.0980682-0.150238-0.149395-0.224617
				c-0.0929203-0.1339493-0.1851158-0.2680969-0.269268-0.4049034c-0.0553493-0.0902672-0.1051884-0.1821785-0.1568375-0.273571
				c-0.0893402-0.1578026-0.1777134-0.3159294-0.2562733-0.4771919c-0.0406284-0.0833435-0.0756226-0.1683426-0.1134357-0.252533
				c-0.0755024-0.1682587-0.1505222-0.3366432-0.2150822-0.5084038c-0.034956-0.09272-0.0634766-0.1873283-0.0953751-0.2809715
				c-0.0556297-0.1639977-0.1123886-0.3276749-0.1588478-0.4945259c-0.0337486-0.1204338-0.0593719-0.2431641-0.0884151-0.3648834
				c-0.0338287-0.1427193-0.0709972-0.2843895-0.0986309-0.4289207c-0.0323811-0.1680984-0.0550289-0.3388138-0.0793247-0.5091667
				c-0.0145206-0.1025772-0.0337887-0.2038231-0.045454-0.3072014c-0.0263882-0.2316952-0.0425987-0.4661674-0.0551891-0.7015247
				c-0.0025349-0.047224-0.0084076-0.0934429-0.0104179-0.1407871c-0.0110226-0.2623482-0.0126305-0.5271091-0.007803-0.7934799
				c0.0004425-0.0261459-0.0013275-0.0517292-0.0007648-0.0779171c0.0045853-0.2094517,0.0346336-0.387085,0.0804501-0.5464573
				c0.1461372-0.5141163,0.5004005-0.7810898,1.0935593-0.850317c0.1106586-0.013195,0.2293224-0.0195904,0.3561115-0.0196304
				c4.2263699-0.000845,8.4527378-0.0004425,12.6791477-0.0002403c0.8054237-0.7888546,1.7568283-1.1979446,2.1693382-1.3728027
				c5.1430168-2.1779461,10.128994-4.385498,14.6000938-7.4348812c0.4118233-0.2808113,0.7965775-0.551445,1.158844-0.8165283
				c-5.0957527-0.0049477-10.1915054-0.0110226-15.2872581-0.0111828
				C30.9432583,19.339613,23.3074112,19.3445206,15.671566,19.3561459z M14.4377823,43.602253
				c-1.0191832-0.3560295-2.0160809-0.6837463-2.9984579-1.0140724c-1.0195045-0.324173-2.0390902-0.6481476-3.0481358-1.0021667
				c-0.8082829-0.2835884-1.4792771-0.7087288-2.0252924-1.2259407c-0.0179005-0.0170174-0.0372081-0.032341-0.0548267-0.0496788
				c-1.0804458-1.0542603-1.6079574-2.510891-1.4283524-4.1560936c0.1820183,0.0847931,0.3656058,0.1676979,0.5480666,0.2518082
				c1.5278287,0.678196,3.0875163,1.3182945,4.5635753,2.1146736c0.074296,0.0401039,0.1448507,0.0884132,0.2183018,0.1304474
				c0.0705948,0.0352402,0.1430807,0.0666542,0.2135544,0.1021729c0.9316931,0.4697075,1.7431135,1.0948067,2.4250097,1.8548584
				c0.048028,0.0425987,0.0980682,0.083828,0.1457348,0.1265869c0.6867228,0.6162491,1.1536551,1.4328995,1.3661642,2.5173264
				c0.0397425,0.107563,0.0781574,0.2131538,0.1245375,0.3309326c-0.0208368-0.0069199-0.037611-0.0125084-0.0580854-0.0193062
				C14.4315071,43.5774765,14.4359312,43.5884972,14.4377823,43.602253z M19.2816849,32.1991692
				c-0.1524525,0.1033363-0.2678585,0.2024117-0.4001579,0.2669716c-0.3144798,0.1534996-0.6313324,0.3051109-0.9571152,0.4320984
				c-0.6864014,0.2675781-1.3798809,0.4602966-2.0784702,0.6012459c-0.5561523,0.1222038-1.1201887,0.2056313-1.6930742,0.2413902
				c-0.0099754,0.0006027-0.020112,0.0006027-0.0300875,0.0012054c-1.3355532,0.1094551-2.6877594,0.0598984-4.0503035-0.0600548
				c-1.6422691-0.1445694-2.8462062-0.8106155-3.7377143-1.9041748c-0.058568-0.0670948-0.1129522-0.1376095-0.1686239-0.2073193
				c-0.0298872-0.0403061-0.0628715-0.0763474-0.0919948-0.1177387c-0.9233665-1.2154827-1.4114976-2.7799149-1.1755376-4.276289
				c0.0094128-0.0596123,0.0261464-0.1181412,0.0364842-0.1776333c0.0956955-0.7428761,0.2919941-1.4803238,0.5244145-2.2184525
				c0.0010457-0.0039024,0.0020514-0.0078449,0.0030971-0.0117474c0.0010462-0.0038605,0.0026951-0.006958,0.0037813-0.0107803
				c0.0088091-0.027956,0.0166531-0.055872,0.0255427-0.083828c0.0028563-0.0089302,0.008769-0.0140781,0.011786-0.0228081
				c0.0329041-0.0875301,0.0721235-0.166008,0.11975-0.2319775c0.0134754-0.0184231,0.0281177-0.0341911,0.04284-0.050724
				c0.0541024-0.0624294,0.1146412-0.1139183,0.1840696-0.149437c0.0051489-0.002573,0.0107403-0.0038605,0.0159698-0.0062752
				c0.1487117-0.0704727,0.3310523-0.075985,0.5429578-0.0081654c0.0159693,0.0049877,0.0296059,0.002655,0.0458164,0.0084877
				c2.6059008,0.9407845,5.241086,1.8200245,7.6740198,3.1507092c0.1360407,0.0621891,0.2746563,0.118906,0.4101753,0.1822605
				c2.0215912,0.9450874,3.6900864,2.4068279,4.7627697,4.5459576c-0.0195904,0.012146-0.0397015,0.0222855-0.0593319,0.0343094
				C19.2550564,32.1513023,19.2695789,32.1740685,19.2816849,32.1991692z"/>
			<path style="fill:none;" d="M24.3296108,32.4968338c0.0074425,0.037571,0.0164127,0.0744171,0.0242958,0.1117859
				c0.0237331,0.1151657,0.0496387,0.2293625,0.0779572,0.3423576c0.0265484,0.1038589,0.0560741,0.2065125,0.0867653,0.3086433
				c0.0141182,0.0476265,0.0279961,0.0953369,0.0431213,0.1425591c0.0387764,0.1200714,0.0812149,0.2387772,0.1264668,0.3563957
				c0.0126724,0.0330658,0.025423,0.0660896,0.0386162,0.0989532c0.0464211,0.1151237,0.0966606,0.2287979,0.1498795,0.3413887
				c0.021841,0.0459785,0.044569,0.0915527,0.0676575,0.1370087c0.045536,0.0905037,0.0935249,0.1801682,0.1438866,0.2689857
				c0.0588894,0.1022491,0.1202316,0.203537,0.1862411,0.303093c0.0167732,0.0259056,0.0328636,0.0521317,0.0501213,0.077877
				c0.0565968,0.0824203,0.1211967,0.1619072,0.1830635,0.2423553c0.0818977,0.1054306,0.1653252,0.2075233,0.2546654,0.2961388
				c0.0313358,0.0330238,0.0636768,0.0636368,0.0959778,0.0941658c0.4286785,0.383625,0.9514427,0.5834656,1.6278687,0.5933189
				c2.9247646-0.0071983,5.8495293-0.0103378,8.7742958-0.0123901l-0.6605377-1.1426735
				c-0.3349113-0.579361-1.1501961-1.9930725-0.9277916-3.6314373c-3.4940701,0-6.9867725,0-10.4903374,0
				C24.2146873,31.7913666,24.2626362,32.1487274,24.3296108,32.4968338z"/>
			<path d="M38.5791054,41.006691c-0.0554733,0-0.1109009,0.0005226-0.1663742,0.0005226
				c-4.9308701,0.0004005-9.8618202,0.0170555-14.7925301,0.0467033c-1.1423111,0.0068779-2.293232,0.4518051-3.4165573,0.7754974
				c-0.4183006,0.1205559-0.993679,0.3383331-0.8615799,0.9620247c0.1053886,0.4975014,0.4781151,0.6095695,0.8988285,0.6344681
				c0.1163712,0.0418358,0.2671757,0.0179825,0.4104176,0.0082054c5.9759178-0.0065956,11.9518356-0.0042229,17.9277954-0.0042648
				c0.6202278,0,1.2404594,0.0004845,1.8606911,0.0004425c-0.4676971-0.8093262-0.9349136-1.6180115-1.3998337-2.4221497
				c-0.0981483-0.000042-0.1963387-0.000927-0.294487-0.000927C38.6900024,41.0072136,38.6345749,41.006691,38.5791054,41.006691z"
				/>
			<path d="M22.9028282,28.9946384c-0.5931587,0.0692272-0.947422,0.3362007-1.0935593,0.850317
				c-0.0458164,0.1593723-0.0758648,0.3370056-0.0804501,0.5464573c-0.0005627,0.0261879,0.0012074,0.0517712,0.0007648,0.0779171
				c-0.0048275,0.2663708-0.0032196,0.5311317,0.007803,0.7934799c0.0020103,0.0473442,0.0078831,0.0935631,0.0104179,0.1407871
				c0.0125904,0.2353573,0.028801,0.4698296,0.0551891,0.7015247c0.0116653,0.1033783,0.0309334,0.2046242,0.045454,0.3072014
				c0.0242958,0.1703529,0.0469437,0.3410683,0.0793247,0.5091667c0.0276337,0.1445312,0.0648022,0.2862015,0.0986309,0.4289207
				c0.0290432,0.1217194,0.0546665,0.2444496,0.0884151,0.3648834c0.0464592,0.166851,0.1032181,0.3305283,0.1588478,0.4945259
				c0.0318985,0.0936432,0.0604191,0.1882515,0.0953751,0.2809715c0.0645599,0.1717606,0.1395798,0.3401451,0.2150822,0.5084038
				c0.0378132,0.0841904,0.0728073,0.1691895,0.1134357,0.252533c0.0785599,0.1612625,0.1669331,0.3193893,0.2562733,0.4771919
				c0.0516491,0.0913925,0.1014881,0.1833038,0.1568375,0.273571c0.0841522,0.1368065,0.1763477,0.2709541,0.269268,0.4049034
				c0.0513268,0.074379,0.0953732,0.1510849,0.149395,0.224617c0.0297661,0.0405464,0.0625095,0.0750999,0.0928802,0.1144409
				c0.0308514,0.0403061,0.055912,0.0825844,0.0876102,0.1226082c0.0522919,0.0660477,0.1088085,0.1236496,0.1629105,0.186039
				c0.0168152,0.0190277,0.0332661,0.0386963,0.0502415,0.0573997c0.8668499,0.971035,1.9616966,1.4829788,3.3274193,1.5051842
				c0.0633545,0.00177,0.1231289,0.0094528,0.1877708,0.0091705c3.4044495-0.014801,6.808897-0.0199089,10.2133465-0.020916
				l-1.3910217-2.4064674c-2.9247665,0.0020523-5.8495312,0.0051918-8.7742958,0.0123901
				c-0.6764259-0.0098534-1.1991901-0.2096939-1.6278687-0.5933189c-0.0323009-0.030529-0.064642-0.061142-0.0959778-0.0941658
				c-0.0893402-0.0886154-0.1727676-0.1907082-0.2546654-0.2961388c-0.0618668-0.0804482-0.1264668-0.159935-0.1830635-0.2423553
				c-0.0172577-0.0257454-0.0333481-0.0519714-0.0501213-0.077877c-0.0660095-0.099556-0.1273518-0.2008438-0.1862411-0.303093
				c-0.0503616-0.0888176-0.0983505-0.1784821-0.1438866-0.2689857c-0.0230885-0.0454559-0.0458164-0.0910301-0.0676575-0.1370087
				c-0.0532188-0.1125908-0.1034584-0.226265-0.1498795-0.3413887c-0.0131931-0.0328636-0.0259438-0.0658875-0.0386162-0.0989532
				c-0.0452518-0.1176186-0.0876904-0.2363243-0.1264668-0.3563957c-0.0151253-0.0472221-0.0290031-0.0949326-0.0431213-0.1425591
				c-0.0306911-0.1021309-0.0602169-0.2047844-0.0867653-0.3086433c-0.0283184-0.1129951-0.054224-0.2271919-0.0779572-0.3423576
				c-0.0078831-0.0373688-0.0168533-0.0742149-0.0242958-0.1117859c-0.0669746-0.3481064-0.1149235-0.7054672-0.1477871-1.0714741
				c3.5035648,0,6.9962673,0,10.4903374,0c0.0331879-0.2444077,0.0883751-0.4936028,0.1728477-0.7460155
				c0.2371292-0.7081623,0.643158-1.2638721,1.0930786-1.7045765c-4.2264099-0.0002022-8.4527779-0.0006046-12.6791477,0.0002403
				C23.1321507,28.9750481,23.0134869,28.9814434,22.9028282,28.9946384z"/>
			<path d="M62.0708694,2.8297136c-0.1464577-0.1827023-0.3001976-0.3509235-0.4576378-0.5120251
				c-0.3634338-0.4045838-0.7738533-0.7052662-1.2214355-0.9291188c-0.0765495-0.0404263-0.1528549-0.0813754-0.2321396-0.1170952
				c-0.006958-0.0029365-0.0141182-0.0054706-0.0210762-0.008407c-0.2975082-0.1320188-0.6151237-0.2290819-0.9543419-0.2895804
				c-0.4169312-0.0877309-0.8533363-0.1391788-1.3096886-0.1584063c-0.0009651,0.0070394-0.0019302,0.0137972-0.0028954,0.0207561
				c-1.3673706-0.1206753-3.3324051-0.2920341-5.1285362-0.448228C49.7723732,0.1292432,46.7933846,0,43.8114204,0H33.3467865
				c-2.981966,0-5.9609547,0.1292432-8.9316978,0.3876089c-1.7961292,0.1561939-3.7611637,0.3275528-5.1285362,0.448228
				c-0.0009651-0.006959-0.0019302-0.0137168-0.0028954-0.0207561c-0.4563541,0.0192276-0.8927555,0.0706754-1.3096886,0.1584063
				c-0.3392181,0.0604985-0.6568356,0.1575616-0.95434,0.2895804c-0.006958,0.0029364-0.0141182,0.0054705-0.0210781,0.008407
				c-0.0792828,0.0357199-0.1555901,0.076669-0.2321396,0.1170952c-0.4475842,0.2238525-0.8579998,0.5245349-1.2214336,0.9291188
				C15.387536,2.47879,15.2337961,2.6470113,15.0873365,2.8297136c-1.5474186,1.9305623-2.8125772,4.0233927-3.7632971,6.3039131
				c-0.3898621,0.935112-0.7345505,1.886838-1.0848703,2.8028431c-0.0796862,0.0683823-0.1697502,0.1112223-0.2667732,0.1409082
				c-0.1983089,0-0.3963375,0-0.5956526,0c-0.0602169-0.0127106-0.1203938-0.025342-0.1859608-0.0440063
				c0.0903454-0.2977858,0.1796055-0.5919924,0.2702723-0.8908243c0.1464596-0.4653635,0.3021708-0.9601326,0.4857988-1.5434761
				c-0.0060339,0.0003614-0.0118265,0.0005226-0.0178604,0.000885c0.00354-0.0116253,0.0065966-0.0216417,0.0101366-0.0333471
				c-0.9670506,0.0689058-1.9044161,0.1135149-2.825892,0.168664C7.0161748,9.7400999,6.9192724,9.7466974,6.8225713,9.7519264
				C6.8167791,9.7522888,6.8109059,9.7527313,6.8051138,9.7530928C5.8990841,9.8026104,5.007133,9.8698664,4.1258016,10.0016031
				c-0.0435634,0.0065165-0.0878916,0.0220432-0.1316161,0.0298071C3.9360602,10.039938,3.8770096,10.0440407,3.818965,10.053051
				c-0.8574378,0.1332254-1.7383671,0.5940847-2.4552181,1.1399384c-0.0220836,0.016573-0.0479484,0.0303297-0.0696698,0.0471039
				c-0.0102172,0.007884-0.0182621,0.0166931-0.0283587,0.0246582c-0.0314158,0.0247784-0.0675781,0.0468616-0.0982296,0.0719624
				c-0.7905837,0.6470203-1.1620623,1.4775076-1.1641539,2.2914219c-0.0002816,0.0289621-0.0039018,0.0580044-0.0032582,0.0869265
				c0.0002414,0.0084066,0.001971,0.0166931,0.0022928,0.0251007c0.035921,1.10993,0.77027,2.1683722,2.1119373,2.6827307
				c1.6549401,0.6344299,3.4005878,0.5466595,5.1295424,0.4567966c0.0020914-0.0001221,0.0045452-0.0023346,0.0066371-0.0025349
				c0.0016894-0.0000801,0.0033388-0.0001602,0.0050282-0.0002422c0.1189451-0.0054703,0.2644396-0.1558304,0.3649216-0.3126278
				c0.0011263-0.0016899,0.0025744-0.0032597,0.0036607-0.0049477c0.0288415-0.0454559,0.0508447-0.0898228,0.0700722-0.132864
				c0.0031776-0.0071602,0.0089297-0.0152855,0.0117455-0.0222855c0.0001612-0.0004425,0.0003219-0.000845,0.000483-0.0012875
				c0.0006838-0.0017281,0.0021319-0.0037804,0.0028157-0.0054703c0.1086879-0.2720814,0.2042627-0.5489912,0.2971425-0.8255386
				c0.1102171-0.3278341,0.2174168-0.6592083,0.3298454-0.9935999h1.0769062
				c-0.170434,1.1984663-0.5266676,2.2568693-1.3045397,3.0396891c-0.3492746,0.293602-0.752893,0.5483074-1.2258592,0.7557087
				c-0.8240914,0.3613415-1.6182952,0.7985477-2.4004316,1.2460918c-1.4932353,0.8543816-2.7789495,1.9556217-3.3246832,3.6359844
				c-0.0368462,0.1133957-0.0669748,0.2296047-0.1014879,0.3440456c-0.1955743,0.5256214-0.3518085,1.0844288-0.4543021,1.6913834
				c-0.0320594,0.1897831-0.0511663,0.3787994-0.0804501,0.5684204c-0.0617455,0.3520908-0.1172963,0.7048244-0.1623082,1.0573978
				c-0.0141994,0.1111012-0.0211182,0.2217999-0.0344326,0.3328629c-0.0275944,0.2310925-0.048069,0.4618645-0.0716409,0.6927547
				c-0.052896,0.5110607-0.0996777,1.0217571-0.1338288,1.5317307c-0.0077634,0.1207161-0.0130732,0.2413521-0.0197103,0.3619862
				c-0.2034584,3.486105,0.0319387,6.9457455,0.7162879,10.3673306C0.8351089,40.305687,0.8563477,40.4075394,0.87642,40.50951
				c0.0677391,0.3256226,0.1354781,0.6512413,0.2113426,0.9761391c0.0699916,0.3197899,0.131013,0.6399422,0.2077223,0.9594498
				c0.3901027,1.624691,0.835153,3.2329712,1.1596488,4.8717003c0.0690665,0.413475,0.1322601,0.8286781,0.1833057,1.2482643
				c0.0334673,0.2750206,0.0901444,0.5491142,0.1617451,0.8216782c0.1285994,0.7888145,0.5052671,1.568737,0.8842678,2.2888451
				c0.017699,0.0336304,0.0390184,0.0619888,0.0575621,0.0944099c0.3900623,0.7501564,1.0705099,1.235836,1.9697413,1.2820129
				c0.1428394,0.0160484,0.2900634,0.0251808,0.4437232,0.0238533c0.7662873-0.0065956,1.5326157-0.0063972,2.298943-0.0102959
				c1.4833803,0.0033379,2.9666405-0.0008469,4.4499397-0.0059128c1.2633495,0.003376,2.5266981,0.0058327,3.7899265,0.0189438
				c1.0266247,0.0106621,1.6974583-0.4335861,1.9781895-1.3331795c0.1457748-0.3256607,0.2483082-0.6843491,0.3254204-1.0267029
				c0.101326-0.4497986,0.1656475-0.9080009,0.2235298-1.3681374c0.0681019-0.3497581,0.1370468-0.7021675,0.2131538-1.0599289
				h23.8096657c-0.4718399-0.8186607-0.9442024-1.6392136-1.4147949-2.4544144c-1.0834656,0-2.1668854,0-3.2503471,0
				c-10.4984646-0.000042-20.9969292,0-31.4953918-0.0000801c-0.4450102-0.0002022-0.8010421-0.007-1.0959725-0.0343933
				c-0.0556312-0.0059929-0.1163306-0.0093307-0.1681004-0.01754c-0.0106196-0.0014458-0.01963-0.0036201-0.0300884-0.0051079
				c-0.7279129-0.1233711-1.0859566-0.4879684-1.3544989-1.4585609c-0.6583238-2.3795128-1.2721183-4.7886734-1.6463723-7.2251053
				c-0.1037405-0.6754608-0.1817369-1.3530121-0.2436433-2.0314484c-0.1848342-2.4657974-0.1378112-4.9501781,0.1855984-7.4534264
				c0.0279565-0.2163696,0.0543845-0.415081,0.0808122-0.6122646c0.1468618-0.918499,0.3316557-1.8334599,0.563473-2.7334156
				c0.0303698-0.117979,0.0683422-0.2308521,0.1104982-0.340826c0.5374472-1.213953,1.5145948-1.7956886,3.8206179-2.9753685
				c1.1261411-0.5761051,2.2637467-1.1666889,3.1035657-2.1569901c0.2413511-0.1918736,0.4868441-0.3858795,0.7421131-0.5807285
				c0.9257393,0.8209133,2.1828136,1.1432762,3.5981731,1.1417084c0.2200708-0.0002422,0.4401827-0.0001621,0.6602545-0.0004025
				c0.0872879,0.0009651,0.1735306,0.0039825,0.2614231,0.0038605c7.6358452-0.0116253,15.2716923-0.0165329,22.9075394-0.0167732
				c5.0957527,0.0001602,10.1915054,0.0062351,15.2872581,0.0111828c1.1342239-0.8299637,2.0265388-1.6016426,2.6933098-2.4211884
				c-5.9934959,0.0008049-11.9870338,0.0011673-17.9805679,0.000845
				c-7.9147282,0.0004025-15.8294544,0.0014877-23.7441406-0.0011253c-1.4436378-0.0020523-2.4315662-0.7343903-2.6649122-2.0256147
				c-0.0634747-0.351326-0.0159283-0.7540998,0.0899839-1.0997543c1.0416689-3.398777,2.6708241-6.5025039,4.7073803-9.4055882
				c0.1033382-0.1199512,0.1985912-0.2441664,0.3049469-0.3625484c0.2938423-0.3271105,0.7813721-0.6008019,1.2129059-0.6624267
				c1.7345047-0.2478268,3.4789867-0.4473031,5.226202-0.5791607c0.9278316-0.0699916,8.5662537-0.5167716,15.8804207-0.5133927
				c6.6398697,0.003057,13.0125275,0.449837,13.8548431,0.5133927c1.7472153,0.1318576,3.4916954,0.3313339,5.2262039,0.5791607
				c0.4315338,0.0616248,0.9190598,0.3353162,1.2129059,0.6624267c0.1063538,0.118382,0.2016068,0.2425971,0.3049469,0.3625484
				c0.4178162,0.595613,0.8137131,1.2020059,1.1956902,1.8153176c0.584671-0.5197482,1.2657204-1.0202689,2.058918-1.4919481
				C63.012661,4.0761681,62.5613365,3.4416175,62.0708694,2.8297136z M6.4400311,13.4022713
				c-0.10181,0.286644-0.2042632,0.572403-0.3156867,0.8541803c-0.0090504,0.0228472-0.0285997,0.0462589-0.0481896,0.0693474
				c-0.0095735,0.0119066-0.0197906,0.0224857-0.0298872,0.033226c-0.0869265,0.0825424-0.2191863,0.1512871-0.3077216,0.1432819
				c-0.8356762-0.0753822-1.6719956-0.1624689-2.4991841-0.2985106c-0.254504-0.1533775-0.4921939-0.3367643-0.7346306-0.5117025
				C2.5042887,13.6503,2.5165975,13.6053276,2.5284641,13.5606375c0.1941261-0.2594509,0.3630311-0.5605364,0.6199889-0.7165689
				c0.2653649-0.1611824,0.5393782-0.2823,0.8200688-0.3765068c0.0230489-0.0074015,0.0447705-0.0156479,0.0681813-0.0228081
				c0.0985918-0.0313349,0.1987119-0.0566368,0.2989531-0.0815363c0.0662103-0.0164118,0.1325817-0.0325413,0.2004814-0.0470629
				c0.1195493-0.0248594,0.23946-0.048069,0.3610606-0.0658884c0.0067978-0.0010862,0.0135961-0.0020113,0.0204344-0.0030575
				c0.3165712-0.0453739,0.6400614-0.0693483,0.968821-0.0837488c0.3146806-0.0042639,0.6224022,0.013073,0.9095693,0.0569592
				C6.6407542,12.7022343,6.5293708,13.0936251,6.4400311,13.4022713z M5.0391121,48.2689667c3.9659109,0,7.8704786,0,11.86483,0
				c-0.0551891,0.4148827-0.1072807,0.806633-0.1585674,1.1922722c-0.0600567,0.4040985-0.1181412,0.7956505-0.1769905,1.1918678
				c-1.2461739,0-2.4135456,0.000042-3.5803947,0c-1.4536934-0.0000381-2.9075089-0.0053902-4.3610821,0.0006027
				c-0.2928791-0.0000801-0.5861998-0.0000801-0.8789582-0.0001602C6.642323,50.6531868,6.06634,50.6359711,5.7158189,50.3507347
				c-0.1108603-0.1235695-0.2035794-0.272644-0.2649226-0.4792824c-0.1325817-0.4467392-0.2627902-0.8928757-0.3931599-1.3374825
				c-0.009614-0.0510063-0.0186644-0.0974274-0.0286403-0.1509247C5.0203671,48.3363037,5.0375032,48.2847748,5.0391121,48.2689667z
				"/>
		</g>
	</g>
</g>
<g id="Слой_4">
</g>
</svg>
